<?xml version="1.0" standalone="no"?>
<!DOCTYPE svg PUBLIC "-//W3C//DTD SVG 20010904//EN"
 "http://www.w3.org/TR/2001/REC-SVG-20010904/DTD/svg10.dtd">
<svg version="1.0"
    xmlns="http://www.w3.org/2000/svg" width="2188.000000pt" height="2188.000000pt" viewBox="0 0 2188.000000 2188.000000" preserveAspectRatio="xMidYMid meet">

    <g transform="translate(0.000000,2188.000000) scale(0.100000,-0.100000)" fill="#000000" stroke="none">
        <path d="M15715 18618 c-247 -249 -689 -696 -980 -992 -715 -728 -1045 -1059
-1077 -1082 -17 -11 -28 -28 -28 -41 0 -13 -4 -23 -8 -23 -18 0 -52 -38 -52
-58 0 -12 -8 -26 -18 -31 -10 -6 -36 -37 -57 -70 -21 -34 -41 -61 -45 -61 -4
0 -11 -11 -14 -25 -8 -30 -34 -44 -47 -24 -12 20 -11 31 3 27 19 -7 40 19 33
41 -4 14 1 20 21 25 19 5 25 12 21 26 -3 13 -1 17 9 13 9 -3 12 0 9 9 -4 9 4
22 20 32 15 10 24 23 21 31 -3 10 0 12 11 8 11 -4 14 -2 9 5 -4 7 8 24 28 42
19 17 33 37 30 45 -3 7 4 20 16 28 52 37 990 980 984 989 -4 7 -2 8 4 4 7 -4
12 -1 12 9 0 10 5 13 12 9 8 -5 9 -2 5 10 -5 14 -3 17 8 12 9 -3 15 0 15 9 0
8 5 15 11 15 5 0 7 5 4 10 -3 6 1 10 9 10 9 0 15 4 14 10 -2 5 224 234 502
509 278 274 502 502 499 505 -4 4 -43 -30 -88 -75 -44 -45 -81 -78 -81 -73 0
5 38 47 85 94 47 47 85 79 85 72 0 -6 5 -12 11 -12 6 0 8 7 5 16 -3 9 -2 12 4
9 9 -6 32 16 83 82 56 71 -90 -42 -228 -177 -44 -43 -93 -85 -110 -93 -33 -17
-86 -66 -187 -174 -48 -51 -66 -77 -62 -90 5 -14 4 -15 -4 -4 -11 15 -51 -23
-262 -250 -69 -73 -133 -142 -144 -151 -15 -15 -16 -20 -6 -33 9 -10 9 -15 1
-15 -6 0 -11 5 -11 10 0 6 -5 10 -11 10 -6 0 -8 -9 -4 -22 5 -18 4 -19 -4 -8
-5 8 -13 11 -17 7 -4 -3 -1 -13 6 -22 7 -9 8 -15 2 -15 -6 0 -12 6 -15 13 -2
6 -8 9 -12 4 -5 -4 -4 -12 3 -19 8 -8 7 -15 -4 -26 -8 -8 -18 -11 -22 -8 -3 4
0 11 8 16 8 5 12 12 8 15 -4 4 -41 -28 -83 -70 -63 -62 -74 -79 -65 -91 8 -9
9 -14 2 -14 -6 0 -12 6 -15 13 -2 6 -8 9 -12 5 -4 -4 -2 -14 5 -23 7 -9 8 -15
2 -15 -6 0 -12 6 -15 13 -2 6 -59 -46 -128 -118 -225 -235 -451 -466 -654
-667 -160 -159 -197 -201 -185 -209 13 -9 13 -9 0 -7 -19 4 -162 -153 -230
-252 -13 -19 -27 -37 -30 -40 -3 -3 -9 -12 -15 -21 -5 -10 -25 -38 -42 -63
-18 -26 -33 -49 -33 -52 0 -3 -13 -24 -28 -47 -16 -23 -51 -87 -80 -142 -28
-55 -62 -120 -76 -145 -14 -25 -29 -52 -33 -60 -17 -37 -102 -131 -178 -196
-232 -200 -431 -294 -655 -309 -71 -5 -91 -3 -120 12 -31 16 -35 22 -32 53 4
42 41 119 87 180 18 25 34 49 34 54 2 20 190 206 209 206 7 0 15 7 18 15 4 8
13 15 21 15 8 0 26 9 40 20 14 11 34 20 44 20 11 0 19 3 19 8 0 4 36 18 80 32
44 14 80 28 80 32 0 5 8 8 18 8 49 0 174 106 262 220 19 25 37 47 40 50 3 3
21 25 40 50 19 25 40 50 47 55 7 6 24 25 37 44 48 65 132 158 311 341 308 316
489 513 511 556 13 24 10 23 -33 -12 -27 -21 -96 -79 -154 -129 -58 -49 -155
-131 -215 -182 -60 -50 -228 -192 -374 -314 -146 -123 -362 -304 -480 -403
-118 -99 -217 -183 -220 -186 -3 -3 -30 -25 -60 -50 -30 -25 -57 -47 -60 -50
-27 -31 -156 -123 -182 -131 -47 -12 -93 -61 -134 -139 -70 -131 -132 -217
-231 -317 -61 -60 -63 -66 -46 -79 10 -7 29 -17 43 -21 33 -10 306 -8 390 1
44 6 62 5 55 -2 -5 -6 -35 -13 -65 -16 -182 -18 -264 -25 -515 -42 -44 -3
-109 -11 -145 -18 -182 -38 -253 -44 -295 -26 -15 6 -5 9 35 9 31 1 86 10 124
20 104 29 122 59 55 93 -175 87 -481 158 -939 217 -125 16 -1333 148 -1935
211 -104 11 -230 25 -280 30 -316 34 -800 71 -905 69 -37 -1 -41 -2 -20 -9 14
-4 42 -8 62 -9 21 -1 57 -5 80 -11 24 -5 93 -14 153 -20 61 -6 142 -15 180
-20 75 -10 182 -21 420 -46 83 -8 168 -17 190 -20 22 -2 101 -11 175 -19 110
-11 569 -63 710 -80 131 -15 209 -30 202 -37 -8 -8 -197 2 -412 22 -58 6 -140
10 -181 10 -42 0 -89 4 -105 9 -42 14 -243 19 -241 6 1 -5 -20 -11 -46 -13
-33 -2 -47 0 -42 7 3 6 23 11 43 11 25 0 33 3 25 11 -10 10 -139 7 -252 -6
-38 -5 -51 -4 -47 4 4 6 21 11 39 11 22 0 28 3 20 11 -11 11 -148 7 -247 -6
-34 -5 -47 -4 -42 4 4 6 19 11 34 11 19 0 23 3 15 11 -11 11 -127 8 -235 -7
-32 -4 -48 -2 -48 5 0 6 12 11 27 11 20 0 24 3 16 11 -11 11 -113 8 -227 -7
-34 -4 -47 -3 -42 5 4 6 17 11 29 11 15 0 18 3 10 11 -11 11 -113 8 -227 -7
-34 -4 -47 -3 -42 5 4 6 19 11 34 11 24 1 25 2 9 11 -17 10 -109 8 -226 -7
-38 -4 -51 -3 -47 5 4 6 17 11 29 11 21 1 21 1 4 11 -18 11 -94 8 -209 -7 -32
-4 -48 -2 -48 5 0 6 10 11 22 11 16 0 19 3 11 11 -10 10 -91 8 -210 -7 -36 -4
-53 -2 -53 5 0 6 10 11 22 11 16 0 19 3 11 11 -11 11 -67 9 -205 -7 -40 -4
-58 -3 -58 5 0 6 8 11 17 11 11 0 13 3 7 9 -5 6 -54 5 -127 -1 -114 -11 -147
-7 -117 13 10 6 -32 9 -125 9 -77 0 -189 -1 -250 -1 -60 0 -112 -3 -115 -5
-12 -13 30 -24 70 -19 146 18 140 18 165 -5 24 -23 50 -24 157 -4 29 5 46 1
73 -15 40 -23 100 -27 139 -9 20 8 35 8 66 -1 47 -14 53 -31 10 -31 -17 0 -39
-6 -50 -12 -16 -10 -24 -10 -40 0 -11 6 -40 12 -65 12 -25 0 -45 5 -45 10 0 6
-18 10 -39 10 -22 0 -43 -4 -46 -10 -3 -5 -17 -10 -30 -10 -13 0 -27 5 -30 10
-3 6 -28 10 -55 10 -27 0 -52 5 -56 11 -8 13 -65 7 -116 -13 l-37 -14 137 -22
c75 -13 160 -27 187 -32 28 -4 102 -18 165 -29 108 -19 149 -26 373 -66 215
-38 262 -46 345 -61 48 -8 139 -24 202 -35 63 -11 138 -24 165 -29 28 -5 102
-18 165 -29 63 -11 154 -27 203 -35 48 -9 126 -23 175 -32 48 -8 139 -24 202
-35 63 -11 138 -24 165 -29 28 -5 104 -19 170 -30 66 -11 143 -25 170 -30 54
-10 165 -29 310 -55 50 -9 142 -25 205 -36 63 -11 138 -24 165 -29 28 -5 102
-18 165 -29 107 -19 154 -27 380 -67 47 -8 137 -24 200 -35 63 -11 138 -24
165 -29 28 -5 104 -19 170 -30 66 -12 140 -25 165 -29 25 -5 92 -16 150 -26
116 -19 190 -52 190 -85 0 -10 -4 -22 -10 -25 -26 -16 -6 -25 42 -19 37 5 49
4 44 -5 -4 -6 -18 -11 -31 -11 -13 0 -27 -4 -30 -10 -3 -5 -16 -10 -28 -10
-12 0 -31 -8 -42 -16 -19 -15 -18 -16 20 -10 22 4 72 16 110 28 69 20 98 30
240 82 83 31 126 33 148 8 38 -42 30 -119 -24 -224 -12 -24 -11 -48 1 -48 6 0
10 -5 10 -11 0 -8 -4 -8 -14 0 -20 17 -32 -5 -14 -26 11 -15 11 -16 -4 -10
-22 8 -33 -9 -19 -27 9 -11 6 -15 -10 -19 -19 -5 -20 -8 -9 -21 11 -14 9 -16
-9 -16 -22 0 -28 -14 -11 -25 15 -9 12 -25 -4 -19 -17 6 -31 -12 -16 -21 5 -3
10 -11 10 -16 0 -6 -4 -7 -10 -4 -18 11 -32 -6 -18 -23 11 -13 11 -15 -3 -10
-11 5 -20 -3 -29 -28 -8 -19 -18 -34 -23 -34 -5 0 -7 -9 -4 -19 3 -13 -2 -21
-16 -25 -17 -4 -18 -7 -7 -20 10 -13 10 -16 -3 -16 -19 0 -36 -29 -30 -47 3
-7 -2 -13 -11 -13 -16 0 -38 -32 -34 -49 2 -5 -355 -368 -793 -807 -1282
-1287 -2045 -2037 -2223 -2189 -33 -27 -67 -57 -76 -66 -9 -8 -25 -22 -36 -30
-43 -30 -333 -280 -358 -308 -11 -11 -24 -21 -30 -21 -6 -1 -38 -28 -71 -60
-33 -33 -65 -60 -70 -60 -6 0 -33 -22 -60 -50 -27 -27 -54 -50 -60 -50 -6 0
-33 -22 -60 -50 -27 -27 -53 -50 -58 -50 -5 0 -36 -26 -69 -57 -32 -32 -65
-60 -71 -62 -7 -2 -36 -25 -64 -50 -29 -25 -80 -68 -113 -96 -33 -27 -84 -71
-114 -97 -29 -27 -57 -48 -61 -48 -5 0 -39 -29 -76 -65 -37 -36 -72 -65 -78
-65 -6 0 -31 -20 -55 -45 -25 -25 -50 -45 -55 -45 -6 0 -33 -22 -61 -50 -28
-27 -54 -50 -58 -50 -4 0 -23 -14 -42 -31 -19 -17 -55 -48 -80 -68 -25 -20
-64 -54 -88 -76 -24 -22 -51 -44 -59 -49 -9 -5 -37 -28 -62 -52 -25 -24 -49
-44 -52 -44 -4 0 -22 -14 -40 -31 -19 -18 -54 -48 -79 -68 -25 -20 -65 -55
-90 -78 -25 -24 -49 -43 -55 -43 -5 0 -32 -23 -59 -50 -27 -28 -54 -50 -59
-50 -6 0 -34 -21 -63 -47 -29 -27 -85 -75 -125 -108 -39 -33 -98 -84 -130
-112 -32 -29 -62 -53 -67 -53 -4 0 -25 -18 -47 -40 -22 -22 -51 -47 -65 -55
-14 -7 -43 -31 -65 -52 -22 -21 -60 -54 -85 -73 -25 -19 -52 -41 -60 -50 -8
-9 -35 -31 -60 -50 -25 -19 -60 -50 -78 -67 -18 -18 -36 -33 -40 -33 -4 0 -28
-20 -53 -44 -25 -24 -51 -45 -56 -47 -6 -2 -37 -27 -69 -56 -33 -29 -75 -65
-95 -80 -20 -15 -133 -109 -250 -208 -118 -99 -225 -189 -238 -200 -14 -11
-43 -36 -65 -56 -23 -20 -95 -80 -161 -135 -66 -55 -129 -107 -140 -116 -92
-77 -122 -97 -169 -111 -29 -9 -62 -17 -74 -17 -11 0 -24 -4 -27 -10 -8 -13
-65 -13 -65 0 0 6 8 10 18 10 25 0 92 34 122 62 14 13 50 43 80 68 79 65 94
77 185 155 45 39 132 113 194 165 63 52 127 107 145 122 17 14 108 91 202 170
94 78 240 201 325 273 85 71 165 139 178 150 13 11 45 38 71 60 25 22 97 83
160 135 62 52 118 100 124 105 6 6 36 30 66 55 30 25 57 47 60 50 7 7 97 83
250 211 69 57 130 108 136 114 6 5 62 53 125 105 62 52 131 111 154 131 22 19
139 118 260 219 121 101 252 211 291 244 39 34 191 162 339 286 231 194 316
265 455 384 14 11 81 68 150 125 229 191 365 306 370 311 3 3 46 39 95 80 50
41 92 77 95 80 3 3 46 39 95 80 50 41 122 102 160 135 39 33 95 80 125 105
170 143 400 343 560 490 342 313 1360 1305 1360 1325 0 13 -20 -5 -168 -152
-255 -253 -454 -444 -797 -764 -219 -204 -536 -480 -1060 -919 -147 -124 -273
-230 -279 -235 -6 -6 -65 -55 -131 -111 -66 -55 -203 -170 -304 -254 -101 -85
-286 -240 -411 -345 -124 -104 -296 -248 -381 -320 -84 -71 -208 -175 -274
-230 -66 -56 -221 -186 -345 -290 -124 -104 -281 -236 -350 -294 -69 -58 -154
-130 -190 -159 -36 -30 -76 -64 -90 -76 -14 -12 -108 -91 -210 -176 -102 -85
-190 -159 -196 -165 -6 -5 -213 -179 -460 -385 -247 -206 -467 -391 -489 -411
-22 -19 -193 -163 -380 -319 -187 -156 -360 -301 -385 -323 -51 -44 -132 -87
-167 -87 -16 0 -23 -6 -23 -20 0 -21 -15 -27 -25 -10 -11 17 -43 11 -58 -11
-13 -17 -19 -19 -36 -9 -18 9 -27 7 -52 -10 -23 -17 -33 -19 -44 -10 -10 9
-19 8 -39 -5 -15 -10 -33 -14 -46 -10 -13 4 -26 0 -37 -10 -10 -11 -26 -15
-43 -12 -19 4 -29 0 -39 -14 -9 -16 -15 -18 -26 -9 -11 9 -21 7 -43 -9 -22
-15 -32 -17 -41 -8 -8 8 -15 6 -27 -11 -13 -18 -19 -21 -30 -11 -11 9 -17 9
-28 0 -8 -7 -25 -13 -38 -15 -13 -1 -33 -8 -46 -15 -12 -6 -26 -10 -31 -7 -5
3 -14 -1 -21 -9 -7 -9 -20 -15 -29 -13 -9 1 -27 -4 -39 -11 -13 -7 -26 -10
-29 -7 -3 3 -15 -1 -25 -9 -11 -7 -26 -11 -34 -8 -8 3 -17 -2 -20 -11 -4 -11
-13 -14 -31 -10 -19 5 -25 2 -30 -15 -4 -18 -8 -19 -20 -9 -12 10 -18 8 -32
-10 -13 -18 -19 -20 -29 -10 -11 11 -16 9 -30 -10 -14 -18 -20 -20 -30 -10
-11 11 -16 10 -26 -4 -8 -11 -20 -15 -34 -11 -18 4 -22 1 -22 -18 0 -18 -3
-20 -12 -11 -20 20 -48 15 -48 -9 0 -18 -3 -19 -15 -9 -15 12 -46 7 -44 -7 3
-20 -2 -24 -16 -13 -16 13 -50 6 -40 -9 3 -5 1 -12 -4 -15 -5 -4 -12 -2 -16 4
-3 5 -15 10 -26 10 -16 0 -19 -5 -14 -20 6 -20 -9 -28 -20 -10 -3 5 -15 10
-26 10 -16 0 -19 -5 -14 -20 4 -11 2 -20 -4 -20 -6 0 -11 5 -11 10 0 6 -12 10
-26 10 -21 0 -24 -4 -19 -20 4 -11 2 -20 -4 -20 -6 0 -11 5 -11 10 0 6 -13 10
-29 10 -17 0 -33 -4 -36 -10 -3 -5 -17 -10 -31 -10 -13 0 -32 -4 -42 -9 -9 -5
-37 -15 -62 -21 -95 -26 -116 -33 -132 -41 -10 -5 -26 -9 -35 -9 -17 -1 -17
-1 0 -14 23 -18 6 -30 -29 -22 -17 5 -24 2 -24 -9 0 -8 -6 -15 -14 -15 -17 0
-73 -45 -86 -69 -5 -10 -5 -23 0 -32 8 -12 479 -15 3577 -19 3416 -5 3569 -6
3600 -23 29 -16 32 -22 26 -50 -7 -39 -36 -84 -104 -160 l-51 -57 47 0 c63 0
95 -31 95 -94 0 -25 -4 -48 -10 -51 -6 -4 -10 8 -10 28 0 20 -9 46 -21 61 -17
22 -29 26 -68 26 -35 0 -53 -5 -66 -20 -17 -19 -17 -20 6 -29 13 -5 33 -10 43
-12 10 -2 28 -16 39 -31 18 -25 19 -31 8 -90 -7 -35 -13 -78 -14 -95 -1 -19
-7 -33 -14 -33 -7 0 -13 -7 -13 -15 0 -8 -4 -23 -9 -33 -35 -63 -61 -127 -57
-139 3 -7 0 -13 -7 -13 -12 0 -692 -679 -912 -910 -55 -58 -134 -132 -175
-164 -91 -72 -510 -485 -586 -578 -56 -67 -88 -93 -77 -60 3 9 -65 -55 -151
-143 -184 -189 -240 -245 -281 -283 -35 -32 -52 -52 -163 -189 -89 -110 -126
-167 -120 -184 8 -24 115 61 803 640 94 78 235 197 315 264 80 67 147 124 150
127 5 5 165 139 370 311 69 57 127 106 130 109 3 3 30 25 60 50 30 25 57 47
60 50 3 3 61 53 130 110 69 57 127 107 130 110 3 3 30 25 60 50 30 25 57 47
60 50 3 4 88 75 190 160 102 85 196 164 210 177 14 12 126 106 250 210 124
104 297 249 385 323 299 252 430 362 455 383 14 12 50 42 80 67 30 25 69 57
85 72 17 16 50 38 75 50 l45 23 3252 5 c2550 4 3255 8 3264 17 24 24 -59 47
-371 102 -63 11 -155 27 -205 36 -49 9 -142 19 -205 23 -77 5 -114 11 -113 19
3 16 -78 25 -128 14 -57 -13 -146 -14 -154 -1 -4 6 13 10 44 10 30 0 51 4 51
11 0 11 -189 7 -312 -7 -39 -4 -58 -2 -58 5 0 7 24 11 63 11 47 1 58 3 44 11
-18 10 -224 6 -324 -6 -36 -5 -53 -3 -53 4 0 7 21 11 53 11 40 1 48 3 34 11
-18 10 -210 7 -299 -6 -33 -5 -48 -3 -48 4 0 6 17 11 37 11 26 0 34 3 26 11
-11 11 -193 7 -285 -6 -32 -5 -48 -3 -48 4 0 6 9 11 20 11 11 0 20 5 20 11 0
11 -177 7 -257 -6 -29 -5 -43 -3 -43 4 0 6 5 11 10 11 6 0 10 5 10 10 0 14
-160 13 -213 -2 -48 -12 -93 -4 -67 12 12 8 12 10 -3 15 -18 8 -163 0 -214
-10 -40 -9 -75 1 -53 15 26 16 -14 22 -102 16 -162 -12 -163 -12 -161 1 2 7
-8 15 -22 19 -26 7 -136 0 -194 -12 -27 -5 -37 -3 -48 12 -12 16 -27 19 -91
18 -42 0 -93 -4 -113 -8 -30 -7 -42 -4 -67 14 -25 19 -38 21 -98 17 -38 -3
-84 -8 -102 -12 -25 -6 -38 -3 -53 11 -17 15 -36 19 -98 18 -42 0 -88 -4 -103
-8 -21 -6 -34 -3 -54 13 -30 24 -83 28 -115 8 -18 -10 -23 -9 -36 10 -17 25
-61 31 -81 11 -9 -9 -15 -9 -24 0 -9 9 -9 12 1 12 7 0 9 5 6 10 -8 13 -65 13
-65 0 0 -5 -7 -10 -15 -10 -8 0 -15 5 -15 10 0 6 5 10 10 10 6 0 10 5 10 10 0
6 -9 10 -20 10 -23 0 -86 38 -112 66 -25 29 -26 85 -1 120 12 16 51 52 87 79
70 54 86 82 39 70 -43 -10 -131 -65 -179 -112 -35 -34 -44 -49 -44 -76 0 -36
45 -106 68 -107 6 0 12 -4 12 -10 0 -21 -27 -8 -70 35 -38 38 -45 50 -45 84 0
47 14 64 113 138 39 30 72 59 72 64 0 6 -3 8 -7 6 -5 -3 -39 1 -78 8 -38 7
-126 22 -195 34 -144 25 -176 34 -208 61 -34 28 -22 66 36 122 26 25 175 152
332 284 399 334 594 497 600 504 3 3 30 25 60 50 30 25 57 47 60 50 3 3 30 25
60 50 30 25 57 47 60 50 3 3 61 52 130 110 69 57 127 107 130 110 3 3 30 25
60 50 30 25 57 47 60 50 3 3 30 25 60 50 30 25 66 55 80 66 14 12 63 54 110
94 47 40 96 82 110 94 14 11 50 41 80 66 30 25 66 55 80 67 14 11 90 76 170
143 80 67 165 139 190 160 25 21 108 91 185 156 77 64 234 196 349 293 116 97
314 263 440 369 127 106 242 203 256 215 14 12 108 92 210 177 102 85 187 157
190 160 3 3 30 25 60 50 30 25 66 55 80 67 14 11 90 76 170 143 80 67 156 132
170 143 14 12 81 69 150 126 69 58 166 139 215 181 100 85 316 266 595 499
102 85 187 158 190 161 3 3 30 25 60 50 30 25 57 47 60 50 3 3 88 75 190 160
102 85 187 157 190 160 3 3 30 25 60 50 30 25 57 47 60 50 3 3 61 52 130 110
69 57 127 107 130 110 3 3 30 25 60 50 30 25 57 47 60 50 3 3 61 52 130 110
69 57 166 138 215 180 50 42 146 123 215 181 69 57 136 114 150 126 14 12 104
88 200 168 321 270 595 499 619 520 14 11 43 36 65 56 23 19 124 104 226 189
102 85 187 157 190 160 3 3 30 25 60 50 30 25 57 47 60 50 3 3 58 49 122 103
64 53 122 103 130 109 7 7 38 33 68 58 30 25 57 47 60 50 3 3 73 61 155 130
83 69 152 127 155 130 6 6 65 56 248 210 140 117 161 142 141 166 -11 13 -43
15 -233 12 -208 -3 -223 -4 -259 -25 -42 -26 -47 -27 -47 -13 0 6 7 10 15 10
8 0 15 4 15 9 0 5 6 11 13 14 6 2 -1 2 -18 -1 -16 -2 -34 -8 -40 -12 -5 -4
-27 -17 -47 -29 -88 -49 -111 -62 -135 -78 -43 -29 -87 -53 -105 -59 -10 -4
-18 -9 -18 -13 0 -4 -16 -13 -35 -21 -38 -15 -41 -20 -23 -38 8 -8 9 -12 1
-12 -6 0 -13 5 -15 12 -6 16 -39 2 -34 -14 1 -7 1 -10 -1 -5 -8 13 -33 8 -33
-7 0 -8 -6 -13 -12 -13 -7 1 -32 -7 -55 -18 -35 -16 -42 -24 -37 -40 4 -15 3
-16 -4 -6 -15 21 -74 -7 -66 -31 3 -10 1 -18 -5 -18 -6 0 -11 5 -11 10 0 6 -7
10 -16 10 -11 0 -14 -6 -9 -20 4 -11 2 -20 -4 -20 -6 0 -11 5 -11 11 0 6 -6 9
-12 6 -7 -2 -12 -11 -10 -21 2 -9 -2 -16 -8 -16 -5 0 -10 5 -10 11 0 6 -6 9
-12 6 -7 -2 -12 -11 -10 -21 2 -9 -2 -16 -8 -16 -5 0 -10 5 -10 11 0 6 -6 9
-12 6 -7 -2 -12 -11 -10 -21 2 -9 -2 -16 -8 -16 -5 0 -10 5 -10 11 0 6 -6 9
-12 6 -7 -2 -12 -10 -10 -16 1 -7 -7 -9 -23 -5 -15 4 -25 2 -25 -5 0 -6 -9
-11 -20 -11 -11 0 -23 -7 -26 -15 -4 -10 -13 -13 -25 -10 -14 5 -19 1 -19 -14
0 -23 -16 -28 -23 -8 -4 10 -7 10 -18 0 -7 -7 -22 -13 -32 -13 -10 0 -21 -9
-24 -20 -6 -23 -19 -26 -26 -7 -3 9 -10 7 -25 -6 -11 -11 -26 -16 -32 -12 -6
4 -19 0 -29 -9 -10 -9 -25 -14 -33 -11 -8 3 -21 -1 -28 -9 -8 -10 -21 -14 -36
-10 -17 4 -26 1 -30 -10 -5 -13 -14 -15 -34 -11 -18 4 -31 1 -40 -10 -10 -12
-23 -15 -47 -10 -25 4 -36 1 -50 -14 -12 -15 -20 -17 -29 -10 -18 15 -69 7
-69 -11 0 -9 -8 -14 -20 -11 -61 11 -125 12 -125 2 0 -6 9 -11 20 -11 11 0 20
-5 20 -11 0 -8 -9 -9 -27 -3 -16 4 -935 10 -2043 12 -1535 2 -2034 0 -2096 -9
-45 -6 -94 -8 -110 -4 l-29 8 35 11 c32 10 26 11 -60 14 -52 2 -114 -2 -137
-9 -37 -10 -46 -9 -76 10 -39 24 -110 28 -151 9 -21 -9 -29 -8 -45 6 -26 24
-87 32 -118 15 -23 -13 -27 -12 -41 9 -15 23 -65 31 -77 11 -9 -14 -30 -6 -30
12 0 18 -52 24 -71 8 -19 -16 -30 -4 -14 16 11 13 9 15 -12 15 -36 0 -145 56
-163 84 -43 65 42 137 239 205 130 45 157 58 241 114 133 89 270 216 252 233
-9 9 -39 -11 -149 -103 -161 -134 -197 -153 -413 -217 -49 -15 -132 -43 -183
-63 -51 -20 -95 -33 -99 -29 -9 8 10 100 40 195 26 80 41 77 25 -4 -15 -73 0
-105 49 -105 51 0 186 32 308 73 93 31 268 156 332 237 10 13 -4 15 -110 12
-132 -4 -215 9 -241 36 -25 28 -4 80 67 163 35 41 155 184 267 319 113 135
209 250 215 256 5 6 120 143 255 304 135 161 250 298 255 304 6 6 30 36 55 66
25 30 47 57 50 60 3 3 25 30 50 60 25 30 47 57 50 60 4 3 132 156 286 340 154
184 442 529 640 765 198 237 380 457 406 490 59 76 92 135 76 135 -7 0 -215
-204 -463 -452z m-335 -236 c0 -12 -140 -155 -146 -149 -3 3 27 39 68 80 79
81 78 81 78 69z m-670 -697 c0 -10 -112 -117 -117 -112 -3 3 19 30 49 61 49
50 68 64 68 51z m-1306 -1510 c3 -9 0 -15 -8 -15 -8 0 -19 -13 -25 -30 -5 -16
-15 -30 -22 -30 -6 0 -9 -8 -6 -20 3 -14 0 -20 -10 -20 -10 0 -14 -6 -10 -20
3 -14 0 -20 -10 -20 -10 0 -14 -6 -10 -20 3 -13 0 -20 -10 -20 -10 0 -12 -6
-8 -20 5 -15 2 -20 -10 -20 -12 0 -16 -6 -12 -20 3 -12 0 -20 -8 -20 -17 0
-25 -23 -14 -41 5 -8 9 -20 9 -28 0 -11 -3 -11 -15 -1 -10 9 -15 9 -16 1 -1
-6 -2 -17 -3 -23 -1 -7 4 -26 11 -41 8 -15 11 -33 7 -39 -5 -7 -10 -3 -16 11
-9 25 -28 19 -28 -9 0 -11 -5 -32 -11 -47 -6 -15 -15 -37 -19 -48 -25 -64 -67
-157 -92 -202 -43 -76 -148 -185 -205 -213 -26 -13 -56 -27 -65 -32 -10 -4
-31 -8 -48 -8 -30 0 -41 -14 -17 -23 6 -2 9 -8 4 -13 -4 -4 -22 -2 -40 4 -51
18 -83 15 -100 -10 -13 -20 -18 -21 -36 -10 -30 18 -59 15 -93 -9 -22 -16 -32
-19 -41 -10 -17 17 -46 13 -77 -9 -18 -13 -31 -16 -35 -10 -10 16 -34 12 -65
-10 -18 -13 -31 -16 -35 -10 -10 16 -40 11 -64 -11 -17 -16 -26 -18 -34 -10
-16 16 -38 13 -66 -8 -19 -15 -29 -16 -52 -8 -24 10 -33 8 -60 -12 -22 -17
-34 -20 -42 -12 -19 19 -63 13 -80 -11 -12 -19 -18 -21 -28 -10 -7 6 -28 12
-46 12 -26 0 -33 -4 -33 -20 0 -21 -24 -28 -35 -10 -3 6 -24 10 -46 10 -21 0
-39 -4 -39 -10 0 -5 7 -10 15 -10 8 0 15 -4 15 -10 0 -13 -23 -13 -37 1 -11
11 -25 11 -164 -11 -57 -9 -89 -9 -130 0 -30 6 -69 14 -87 17 -18 3 -35 9 -38
14 -7 12 -51 11 -59 -1 -9 -15 -25 -2 -18 15 6 18 -27 21 -45 3 -9 -9 -12 -7
-12 11 0 19 -4 22 -22 18 -14 -4 -26 0 -34 11 -10 14 -14 14 -28 3 -16 -13
-17 -13 -20 12 0 6 -12 14 -26 16 -14 1 -28 8 -32 14 -4 7 -11 7 -22 -2 -9 -8
-17 -11 -17 -7 -1 3 -3 11 -4 16 -1 6 -3 13 -4 16 0 4 -7 1 -15 -5 -11 -10
-16 -8 -21 8 -3 12 -15 21 -25 21 -10 0 -22 5 -25 10 -4 6 -15 8 -26 5 -13 -4
-19 -2 -19 9 0 19 -11 21 -27 5 -8 -8 -14 -5 -23 11 -7 14 -17 19 -27 16 -9
-4 -24 1 -34 10 -10 9 -23 13 -29 9 -6 -4 -20 1 -31 11 -14 13 -22 15 -31 6
-8 -8 -19 -6 -40 10 -20 13 -33 17 -39 11 -11 -11 -59 5 -59 20 0 11 -38 9
-45 -3 -3 -6 -13 -6 -23 -1 -63 32 -74 35 -91 24 -11 -7 -23 -8 -32 -2 -8 5
-26 9 -41 9 -39 0 -35 17 5 23 17 3 42 8 54 12 15 5 27 1 42 -14 24 -24 52
-27 82 -8 17 10 23 9 39 -10 20 -25 49 -30 69 -10 10 10 16 7 31 -13 16 -21
21 -23 45 -12 33 15 32 16 38 -8 5 -21 31 -27 42 -10 10 17 25 11 25 -10 0
-21 24 -28 35 -10 10 17 25 11 25 -10 0 -21 24 -28 35 -10 10 16 28 12 22 -5
-8 -19 11 -31 26 -16 17 17 29 13 22 -9 -4 -14 -2 -20 9 -20 8 0 18 5 21 10
10 16 28 12 22 -5 -8 -19 11 -31 26 -16 17 17 29 13 22 -9 -4 -14 -2 -20 9
-20 8 0 18 5 21 10 10 16 28 12 22 -5 -9 -21 9 -28 32 -13 11 7 24 9 28 5 4
-5 1 -12 -6 -16 -24 -15 9 -25 35 -10 25 13 48 4 25 -10 -24 -15 8 -24 40 -11
16 7 33 9 37 5 4 -4 1 -10 -5 -12 -28 -10 -12 -25 20 -19 82 17 100 18 93 7
-4 -6 -16 -11 -27 -11 -13 0 -18 -4 -13 -11 5 -8 29 -9 78 -4 39 4 78 6 86 6
8 0 65 -3 126 -7 78 -5 113 -3 118 5 5 7 -8 11 -41 11 -26 0 -55 5 -63 11 -15
10 8 9 186 -7 42 -4 70 -2 77 5 8 8 -2 11 -35 11 -26 0 -50 5 -54 11 -7 11 14
10 189 -7 38 -4 57 -2 57 5 0 6 -11 11 -24 11 -14 0 -28 5 -32 11 -5 9 8 10
47 5 127 -17 139 -18 139 -8 0 5 -10 13 -22 17 -21 7 -20 8 9 12 18 2 41 -1
52 -6 25 -14 68 -14 76 -1 3 6 -1 10 -9 10 -9 0 -16 5 -16 10 0 13 26 13 66
-2 36 -13 79 -3 54 12 -25 16 -1 24 33 12 58 -21 83 -13 55 17 -13 14 -9 14
82 -5 29 -6 44 9 18 19 -7 2 -10 8 -5 13 4 4 22 2 40 -4 41 -15 77 -16 77 -2
0 6 -9 10 -20 10 -11 0 -20 5 -20 10 0 6 11 10 24 10 14 0 28 -4 31 -10 3 -5
19 -10 35 -10 16 0 32 5 35 10 3 6 15 10 25 10 37 0 131 51 202 111 140 116
242 254 310 419 6 14 15 35 21 48 8 17 8 28 -1 42 -16 27 -15 48 1 25 18 -23
32 -3 17 24 -13 24 -13 41 0 21 7 -12 12 -12 22 -2 9 9 9 15 0 24 -18 18 -14
32 5 17 15 -13 16 -11 9 21 -5 26 -4 32 5 23 9 -9 18 -1 35 34 13 25 21 49 18
54 -3 5 2 9 11 9 14 0 16 6 10 27 -5 23 -4 25 9 14 13 -11 16 -11 16 3 0 9 5
16 11 16 7 0 9 10 5 25 -5 19 -3 23 9 19 8 -4 15 -1 15 5 0 16 27 13 34 -4z
m-229 -225 c3 -5 1 -10 -4 -10 -6 0 -11 5 -11 10 0 6 2 10 4 10 3 0 8 -4 11
-10z m-60 -120 c3 -5 1 -10 -4 -10 -6 0 -11 5 -11 10 0 6 2 10 4 10 3 0 8 -4
11 -10z m32 -42 c-3 -8 -6 -5 -6 6 -1 11 2 17 5 13 3 -3 4 -12 1 -19z m-52 3
c3 -5 1 -12 -5 -16 -5 -3 -10 1 -10 9 0 18 6 21 15 7z m-15 -40 c0 -6 -4 -13
-10 -16 -5 -3 -10 1 -10 9 0 9 5 16 10 16 6 0 10 -4 10 -9z m47 -13 c-3 -8 -6
-5 -6 6 -1 11 2 17 5 13 3 -3 4 -12 1 -19z m-67 -22 c0 -3 -4 -8 -10 -11 -5
-3 -10 -1 -10 4 0 6 5 11 10 11 6 0 10 -2 10 -4z m47 -28 c-3 -8 -6 -5 -6 6
-1 11 2 17 5 13 3 -3 4 -12 1 -19z m-77 -11 c0 -20 -37 -64 -130 -157 -93 -93
-100 -99 -187 -158 -78 -53 -142 -89 -195 -111 -16 -6 -39 -16 -52 -22 -13 -6
-32 -9 -42 -7 -18 5 -18 5 1 12 182 68 337 169 485 316 46 45 110 123 110 133
0 4 2 7 5 7 3 0 5 -6 5 -13z m183 -2 c4 -8 2 -17 -3 -20 -6 -4 -10 3 -10 14 0
25 6 27 13 6z m-126 -17 c-3 -8 -6 -5 -6 6 -1 11 2 17 5 13 3 -3 4 -12 1 -19z
m7053 -8 c0 -5 -4 -10 -10 -10 -5 0 -10 5 -10 10 0 6 5 10 10 10 6 0 10 -4 10
-10z m-13523 -22 c43 -16 42 -24 -4 -32 -45 -8 -61 -8 -130 0 -66 7 -69 24 -5
24 26 0 54 5 62 10 20 13 37 12 77 -2z m6452 -10 c-15 -28 -84 -123 -119 -162
-84 -96 -277 -236 -326 -236 -8 0 -14 -4 -14 -10 0 -5 -11 -10 -25 -10 -14 0
-25 5 -25 10 0 6 11 10 25 10 14 0 25 5 25 10 0 6 7 10 16 10 9 0 28 8 42 18
15 10 39 24 53 31 67 33 256 216 309 299 33 51 62 74 39 30z m124 -1 c3 -8 1
-20 -4 -28 -6 -10 -9 -7 -9 14 0 29 5 35 13 14z m-6345 -13 l37 -17 -35 -8
c-19 -4 -45 -10 -56 -14 -12 -4 -25 -2 -28 4 -4 6 -27 11 -52 11 -24 0 -44 5
-44 10 0 6 19 10 43 10 23 0 49 5 57 10 21 14 35 12 78 -6z m228 -21 l39 -17
-35 -7 c-19 -4 -45 -10 -56 -14 -12 -4 -25 -2 -28 4 -4 6 -29 11 -57 11 -27 0
-49 5 -49 10 0 6 19 10 43 11 23 0 51 4 62 9 29 13 38 12 81 -7z m239 -24 l30
-13 -30 -3 c-16 -2 -40 -9 -53 -15 -17 -9 -25 -9 -34 0 -7 7 -31 12 -55 12
-24 0 -43 5 -43 10 0 6 17 10 38 10 20 0 44 5 52 10 17 12 50 8 95 -11z m221
-16 l39 -17 -30 -4 c-16 -1 -40 -8 -53 -14 -17 -9 -25 -9 -34 0 -7 7 -34 12
-60 12 -26 0 -48 5 -48 10 0 6 19 10 43 10 23 0 49 5 57 10 22 14 42 12 86 -7z
m12429 7 c3 -5 1 -10 -4 -10 -6 0 -11 5 -11 10 0 6 2 10 4 10 3 0 8 -4 11 -10z
m-12214 -22 c41 -12 52 -28 19 -28 -10 0 -31 -5 -45 -12 -19 -9 -28 -9 -37 0
-7 7 -34 12 -60 12 -56 0 -66 20 -10 21 20 0 46 4 57 9 27 12 32 12 76 -2z
m237 -25 c35 -15 36 -17 12 -20 -14 -2 -35 -9 -48 -15 -17 -9 -25 -9 -34 0 -7
7 -34 12 -60 12 -26 0 -48 5 -48 10 0 6 17 10 38 10 20 0 44 5 52 10 22 14 46
12 88 -7z m223 -15 c44 -13 51 -28 14 -28 -14 0 -34 -6 -45 -12 -15 -10 -22
-10 -32 0 -6 6 -34 12 -60 12 -56 0 -66 20 -10 21 20 0 46 4 57 9 27 12 32 12
76 -2z m237 -25 c35 -15 36 -17 12 -20 -14 -2 -35 -9 -48 -15 -17 -9 -25 -9
-34 0 -7 7 -34 12 -60 12 -56 0 -66 20 -10 21 20 0 46 4 57 9 30 13 42 12 83
-7z m367 7 c-3 -5 -29 -10 -56 -10 -31 0 -48 4 -44 10 3 6 29 10 56 10 31 0
48 -4 44 -10z m11010 0 c3 -5 1 -10 -4 -10 -6 0 -11 5 -11 10 0 6 2 10 4 10 3
0 8 -4 11 -10z m-11154 -22 c44 -13 51 -28 14 -28 -14 0 -34 -6 -45 -12 -15
-10 -22 -10 -32 0 -6 6 -34 12 -60 12 -26 0 -48 5 -48 10 0 6 17 10 38 10 20
0 44 5 52 10 20 13 35 12 81 -2z m384 2 c-3 -5 -28 -10 -56 -10 -27 0 -49 5
-49 10 0 6 25 10 56 10 34 0 53 -4 49 -10z m548 -7 c-7 -2 -21 -2 -30 0 -10 3
-4 5 12 5 17 0 24 -2 18 -5z m-702 -15 c41 -12 52 -28 19 -28 -10 0 -31 -5
-45 -12 -19 -9 -28 -9 -37 0 -7 7 -34 12 -60 12 -26 0 -48 5 -48 10 0 6 17 10
38 10 20 0 44 5 52 10 20 13 35 12 81 -2z m389 2 c0 -5 -25 -10 -55 -10 -30 0
-55 5 -55 10 0 6 25 10 55 10 30 0 55 -4 55 -10z m-153 -22 c37 -13 44 -28 13
-28 -10 0 -31 -5 -45 -12 -19 -9 -28 -9 -37 0 -7 7 -34 12 -60 12 -26 0 -48 5
-48 10 0 6 17 10 38 10 20 0 44 5 52 10 20 13 47 12 87 -2z m393 2 c0 -5 -25
-10 -55 -10 -30 0 -55 5 -55 10 0 6 25 10 55 10 30 0 55 -4 55 -10z m-161 -21
c40 -14 39 -25 -1 -33 -37 -8 -42 -8 -120 0 -65 7 -79 24 -20 25 20 0 46 4 57
9 28 12 47 12 84 -1z m401 1 c0 -5 -25 -10 -55 -10 -30 0 -55 5 -55 10 0 6 25
10 55 10 30 0 55 -4 55 -10z m-162 -26 l37 -17 -35 -7 c-19 -4 -42 -10 -51
-14 -10 -4 -20 -3 -24 3 -3 6 -31 11 -61 11 -60 0 -76 20 -16 21 20 0 46 4 57
9 30 13 52 12 93 -6z m412 6 c0 -6 -27 -10 -60 -10 -33 0 -60 4 -60 10 0 6 27
10 60 10 33 0 60 -4 60 -10z m-189 -22 c44 -13 51 -28 14 -28 -14 0 -34 -6
-45 -12 -15 -10 -22 -10 -32 0 -6 6 -34 12 -60 12 -26 0 -48 5 -48 10 0 6 17
10 38 10 20 0 44 5 52 10 20 13 35 12 81 -2z m364 2 c-3 -5 -24 -10 -46 -10
-21 0 -39 5 -39 10 0 6 21 10 46 10 27 0 43 -4 39 -10z m650 -49 c70 -14 86
-19 225 -62 103 -32 187 -75 183 -94 -6 -30 -135 -27 -233 5 -14 4 -45 13 -70
21 -25 7 -49 16 -54 21 -6 4 -18 8 -28 8 -10 0 -26 4 -36 9 -16 8 -53 24 -97
42 -11 4 -66 24 -123 45 -57 20 -99 40 -93 43 11 7 225 -18 326 -38z m-790 27
c30 -14 33 -28 5 -28 -11 0 -29 -6 -40 -12 -15 -10 -22 -10 -32 0 -6 6 -31 12
-55 12 -24 0 -43 5 -43 10 0 6 17 10 38 10 20 0 44 5 52 10 20 13 44 12 75 -2z
m275 2 c0 -5 -16 -10 -35 -10 -19 0 -35 5 -35 10 0 6 16 10 35 10 19 0 35 -4
35 -10z m9240 0 c0 -5 -4 -10 -10 -10 -5 0 -10 5 -10 10 0 6 5 10 10 10 6 0
10 -4 10 -10z m-9130 -20 c0 -5 -13 -10 -30 -10 -16 0 -30 5 -30 10 0 6 14 10
30 10 17 0 30 -4 30 -10z m80 -20 c0 -5 -9 -10 -20 -10 -11 0 -20 5 -20 10 0
6 9 10 20 10 11 0 20 -4 20 -10z m80 -20 c0 -5 -9 -10 -20 -10 -11 0 -20 5
-20 10 0 6 9 10 20 10 11 0 20 -4 20 -10z m60 -20 c0 -5 -9 -10 -20 -10 -11 0
-20 5 -20 10 0 6 9 10 20 10 11 0 20 -4 20 -10z m55 -20 c-3 -5 -10 -10 -16
-10 -5 0 -9 5 -9 10 0 6 7 10 16 10 8 0 12 -4 9 -10z m2355 -11 c0 -14 113
-99 133 -99 9 0 17 -4 17 -10 0 -5 -6 -10 -14 -10 -8 0 -18 5 -21 10 -3 6 -15
10 -26 10 -10 0 -19 5 -19 10 0 6 -6 10 -13 10 -7 0 -32 9 -55 20 -28 14 -61
20 -107 20 -66 0 -88 13 -37 23 15 3 45 12 66 20 39 14 76 12 76 -4z m-2300
-9 c0 -5 -7 -10 -15 -10 -8 0 -15 5 -15 10 0 6 7 10 15 10 8 0 15 -4 15 -10z
m1630 0 c0 -5 -14 -10 -31 -10 -17 0 -28 4 -24 10 3 6 17 10 31 10 13 0 24 -4
24 -10z m-1578 -22 c-9 -9 -15 -9 -24 0 -9 9 -7 12 12 12 19 0 21 -3 12 -12z
m1503 2 c-3 -5 -19 -10 -36 -10 -16 0 -29 5 -29 10 0 6 16 10 36 10 21 0 33
-4 29 -10z m-1445 -20 c0 -5 -7 -10 -15 -10 -8 0 -15 5 -15 10 0 6 7 10 15 10
8 0 15 -4 15 -10z m1990 0 c0 -5 -13 -10 -30 -10 -16 0 -30 5 -30 10 0 6 14
10 30 10 17 0 30 -4 30 -10z m-1938 -22 c-9 -9 -15 -9 -24 0 -9 9 -7 12 12 12
19 0 21 -3 12 -12z m63 -18 c-3 -5 -13 -10 -21 -10 -8 0 -14 5 -14 10 0 6 9
10 21 10 11 0 17 -4 14 -10z m70 -20 c-3 -5 -15 -10 -26 -10 -10 0 -19 5 -19
10 0 6 12 10 26 10 14 0 23 -4 19 -10z m85 -20 c0 -5 -11 -10 -24 -10 -14 0
-28 5 -31 10 -4 6 7 10 24 10 17 0 31 -4 31 -10z m2120 0 c0 -5 -7 -10 -15
-10 -8 0 -15 5 -15 10 0 6 7 10 15 10 8 0 15 -4 15 -10z m65 -20 c-3 -5 -13
-10 -21 -10 -8 0 -14 5 -14 10 0 6 9 10 21 10 11 0 17 -4 14 -10z m-2180 -120
c-3 -5 -10 -10 -16 -10 -5 0 -9 5 -9 10 0 6 7 10 16 10 8 0 12 -4 9 -10z m61
-33 c26 -23 27 -25 14 -75 -17 -74 -46 -111 -115 -148 -61 -33 -95 -42 -95
-24 0 6 6 10 13 10 24 0 75 30 104 60 47 50 67 148 36 182 -15 16 -15 18 0 18
9 0 28 -10 43 -23z m344 13 c0 -5 -8 -10 -18 -10 -9 0 -26 -12 -37 -26 -22
-30 -85 -207 -85 -241 0 -13 -4 -23 -10 -23 -5 0 -10 14 -10 31 0 50 41 212
58 232 31 35 102 61 102 37z m6820 2 c0 -23 -351 -27 -2065 -22 -1407 4 -1825
8 -1840 17 -16 10 394 12 1943 13 1079 0 1962 -4 1962 -8z m-7375 -282 c-3 -5
-13 -10 -21 -10 -8 0 -14 5 -14 10 0 6 9 10 21 10 11 0 17 -4 14 -10z m395
-57 c0 -19 -3 -24 -10 -17 -6 6 -8 18 -4 27 9 24 14 21 14 -10z m3964 -45 c43
-45 68 -167 87 -428 12 -170 6 -374 -18 -600 -8 -80 -16 -157 -17 -171 -2 -14
-5 -30 -8 -35 -3 -5 -11 -27 -17 -50 -13 -50 -55 -113 -132 -202 -32 -37 -79
-92 -104 -122 -25 -30 -69 -82 -98 -116 -62 -72 -131 -156 -207 -249 -30 -38
-79 -94 -107 -125 -29 -31 -53 -61 -53 -67 0 -5 -22 -32 -50 -59 -27 -27 -50
-54 -50 -59 0 -6 -18 -28 -40 -50 -22 -22 -47 -51 -55 -65 -8 -14 -34 -47 -60
-74 -25 -26 -45 -52 -45 -56 0 -4 -27 -35 -60 -70 -33 -35 -60 -66 -60 -70 0
-4 -22 -32 -50 -61 -27 -29 -50 -56 -50 -60 0 -4 -22 -31 -50 -60 -27 -29 -50
-56 -50 -60 0 -4 -22 -31 -50 -60 -27 -29 -50 -56 -50 -60 0 -4 -27 -35 -60
-70 -33 -34 -60 -66 -60 -71 0 -4 -19 -27 -42 -50 -24 -24 -59 -63 -78 -88
-19 -25 -41 -52 -50 -60 -9 -8 -31 -35 -50 -60 -19 -25 -56 -67 -81 -95 -25
-27 -99 -108 -165 -180 -227 -248 -1590 -1623 -1599 -1613 -3 2 115 126 261
274 147 148 339 346 427 439 88 94 195 206 237 250 145 152 574 645 715 820
22 28 43 52 46 55 4 3 55 64 115 136 60 72 188 225 285 340 222 265 525 625
654 780 55 65 102 121 105 124 3 3 25 30 50 60 25 30 49 60 55 66 23 25 63 72
105 124 25 30 50 61 57 68 7 7 29 34 50 60 21 26 40 49 43 52 27 24 261 314
279 345 47 79 98 369 108 606 5 107 2 158 -11 230 -51 277 -81 328 -165 285
-40 -21 -75 -83 -104 -185 -37 -127 -81 -162 -343 -269 -66 -27 -133 -57 -150
-66 l-29 -17 45 5 c78 9 370 139 522 233 55 34 59 35 82 19 42 -27 76 -81 85
-135 22 -141 -52 -601 -114 -707 -14 -24 -109 -143 -212 -266 -103 -123 -279
-333 -392 -468 -113 -135 -273 -326 -356 -425 -83 -99 -245 -292 -360 -430
-115 -137 -266 -317 -335 -400 -69 -82 -218 -260 -330 -395 -112 -135 -207
-247 -210 -250 -3 -3 -43 -50 -90 -105 -302 -358 -564 -643 -1064 -1159 -192
-198 -270 -284 -268 -298 1 -14 -2 -18 -12 -15 -11 4 -13 1 -9 -10 5 -12 2
-15 -10 -10 -12 4 -14 2 -10 -10 5 -12 2 -15 -10 -10 -12 4 -14 2 -10 -10 5
-12 2 -15 -10 -10 -12 4 -14 2 -10 -10 5 -13 2 -15 -11 -10 -9 4 -15 3 -12 -2
5 -7 -689 -704 -867 -871 -49 -46 -67 -70 -63 -83 3 -11 -2 -21 -12 -24 -34
-12 -43 -25 -30 -40 9 -11 7 -15 -10 -20 -12 -3 -22 -12 -22 -19 0 -8 -9 -22
-20 -31 -15 -13 -17 -20 -8 -30 9 -11 7 -15 -10 -20 -12 -3 -22 -11 -22 -18 0
-6 -9 -20 -19 -29 -11 -10 -17 -24 -14 -32 3 -8 -1 -14 -11 -14 -18 0 -22 -15
-6 -25 16 -10 1 -25 -17 -18 -13 5 -15 2 -11 -15 4 -13 2 -19 -6 -16 -12 5
-38 -44 -30 -57 3 -5 -2 -9 -12 -9 -11 0 -15 -6 -11 -20 3 -14 0 -20 -10 -20
-10 0 -14 -6 -10 -20 3 -13 0 -20 -10 -20 -10 0 -12 -6 -8 -20 5 -15 2 -20
-10 -20 -13 0 -16 -6 -11 -25 4 -17 3 -23 -6 -20 -8 3 -26 -23 -47 -68 -83
-176 -118 -241 -149 -277 -34 -40 -82 -70 -113 -70 -22 0 -34 -17 -17 -23 7
-2 9 -8 5 -13 -4 -4 -17 -3 -27 4 -30 18 -56 14 -73 -11 -12 -18 -18 -20 -28
-9 -19 18 -43 15 -73 -9 -20 -16 -30 -19 -39 -10 -16 16 -35 14 -68 -9 -23
-17 -32 -19 -47 -9 -16 10 -25 9 -48 -8 -23 -16 -34 -18 -52 -10 -18 8 -27 6
-46 -12 -20 -19 -28 -21 -46 -11 -17 9 -28 8 -56 -9 -29 -17 -38 -19 -54 -8
-17 10 -27 8 -65 -12 -35 -18 -49 -21 -57 -13 -19 19 -63 14 -93 -10 -24 -19
-31 -20 -59 -10 -40 15 -133 16 -141 2 -3 -5 3 -10 14 -10 11 0 23 -5 27 -11
5 -8 -5 -10 -32 -5 -22 4 -68 11 -104 16 -36 4 -90 14 -120 20 -30 6 -67 14
-83 17 -15 3 -30 9 -33 14 -3 5 -18 9 -34 9 -16 0 -32 4 -35 10 -8 13 -52 13
-60 0 -3 -5 -14 -10 -23 -10 -12 0 -13 3 -4 12 7 7 12 16 12 20 0 12 -48 10
-55 -2 -11 -17 -36 -11 -33 8 4 20 -38 30 -55 13 -17 -17 -34 -13 -40 9 -5 21
-51 29 -62 10 -10 -17 -39 -11 -53 10 -13 21 -75 29 -87 10 -10 -16 -33 -12
-64 11 -30 22 -47 22 -153 3 -31 -5 -38 -3 -38 9 0 20 -55 32 -107 23 -98 -16
-146 -19 -139 -7 4 6 17 11 29 11 13 0 17 4 12 9 -6 5 -46 12 -90 14 -44 3
-96 8 -115 12 -19 3 -66 10 -105 16 -363 57 -546 114 -581 180 -48 93 63 188
271 230 109 22 167 43 279 102 117 60 286 184 286 209 0 24 -57 0 -140 -60
-202 -145 -279 -182 -450 -213 -59 -10 -124 -25 -147 -33 -113 -40 -201 -110
-229 -181 -16 -42 -15 -46 3 -76 11 -20 38 -43 67 -57 62 -31 238 -74 391 -96
66 -10 138 -21 160 -25 36 -8 32 -9 -33 -10 -129 -2 -458 40 -567 72 -38 11
-91 31 -117 44 -46 22 -48 25 -48 66 0 53 37 107 112 165 113 86 219 126 433
163 130 22 222 66 373 178 78 58 99 78 90 87 -3 2 -83 18 -179 35 -227 39
-264 60 -241 136 6 21 24 52 39 68 16 17 48 55 73 85 25 30 47 57 50 60 3 3
25 30 50 60 25 30 47 57 50 60 3 3 25 30 50 60 25 30 47 57 50 60 3 3 52 61
110 130 57 69 107 127 110 130 3 3 25 30 50 60 25 30 47 57 50 60 3 3 25 30
50 60 25 30 47 57 50 60 3 3 25 30 50 60 25 30 55 66 67 80 12 14 110 131 218
260 108 129 286 341 394 470 108 129 336 402 506 605 170 204 312 372 315 375
3 3 25 30 50 60 25 30 47 57 50 60 3 3 25 30 50 60 25 30 47 57 50 60 4 3 75
88 160 190 85 102 156 187 160 190 3 3 25 30 50 60 25 30 47 57 50 60 3 3 25
30 50 60 25 30 47 57 50 60 3 3 25 30 50 60 25 30 47 57 50 60 7 7 84 98 286
340 99 118 242 289 319 380 76 91 273 327 438 525 166 198 303 362 306 365 4
3 26 30 51 60 25 30 47 57 50 60 3 3 71 84 151 180 80 96 208 249 284 340 77
91 184 219 240 285 123 148 115 139 156 164 46 28 89 27 293 -10 332 -60 498
-89 1211 -213 749 -131 784 -138 822 -163 31 -21 30 -69 -2 -117 -23 -34 -23
-36 -5 -36 10 0 32 5 47 11 15 6 38 15 51 20 12 5 32 13 45 18 78 30 162 80
191 111 26 29 37 55 51 116 24 108 49 171 94 240 80 122 174 183 215 142z
m-3984 -14 c0 -8 -5 -12 -10 -9 -6 4 -8 11 -5 16 9 14 15 11 15 -7z m-20 -40
c0 -8 -5 -12 -10 -9 -6 4 -8 11 -5 16 9 14 15 11 15 -7z m-20 -44 c0 -5 -2
-10 -4 -10 -3 0 -8 5 -11 10 -3 6 -1 10 4 10 6 0 11 -4 11 -10z m440 -5225 c0
-10 -192 -197 -197 -192 -2 3 37 48 89 100 85 87 108 107 108 92z m-1570
-1876 c0 -5 -4 -9 -10 -9 -5 0 -10 7 -10 16 0 8 5 12 10 9 6 -3 10 -10 10 -16z
m-20 -44 c0 -8 -4 -15 -10 -15 -5 0 -10 7 -10 15 0 8 5 15 10 15 6 0 10 -7 10
-15z m-20 -60 c0 -8 -4 -17 -10 -20 -6 -4 -10 5 -10 20 0 15 4 24 10 20 6 -3
10 -12 10 -20z m-20 -54 c0 -11 -4 -23 -10 -26 -5 -3 -10 -17 -10 -30 0 -13
-4 -27 -10 -30 -5 -3 -10 -13 -10 -21 0 -24 -41 -79 -69 -92 -31 -15 -41 -15
-41 -2 0 6 6 10 13 10 20 0 42 28 72 90 14 30 30 63 36 72 5 10 9 25 9 33 0 8
5 15 10 15 6 0 10 -9 10 -19z m-2845 -201 c4 -6 -21 -10 -67 -9 -50 0 -67 3
-53 9 28 12 113 12 120 0z m-4195 -20 c0 -5 -9 -10 -20 -10 -11 0 -20 5 -20
10 0 6 9 10 20 10 11 0 20 -4 20 -10z m6870 0 c0 -5 -9 -10 -21 -10 -11 0 -17
5 -14 10 3 6 13 10 21 10 8 0 14 -4 14 -10z m-1560 -140 c0 -5 -7 -10 -15 -10
-8 0 -15 5 -15 10 0 6 7 10 15 10 8 0 15 -4 15 -10z m55 -20 c3 -5 -3 -10 -15
-10 -12 0 -18 5 -15 10 3 6 10 10 15 10 5 0 12 -4 15 -10z m55 -20 c0 -5 -9
-10 -21 -10 -11 0 -17 5 -14 10 3 6 13 10 21 10 8 0 14 -4 14 -10z m125 -27
c72 -7 81 -23 13 -23 -31 0 -60 5 -63 10 -3 6 -19 10 -36 10 -16 0 -29 5 -29
11 0 7 11 9 33 4 17 -3 55 -9 82 -12z m2565 -13 c0 -5 -7 -10 -15 -10 -8 0
-15 5 -15 10 0 6 7 10 15 10 8 0 15 -4 15 -10z m50 -20 c0 -5 -4 -10 -10 -10
-5 0 -10 5 -10 10 0 6 5 10 10 10 6 0 10 -4 10 -10z m-9880 -280 c0 -5 -4 -10
-10 -10 -5 0 -10 5 -10 10 0 6 5 10 10 10 6 0 10 -4 10 -10z m-60 -20 c0 -5
-4 -10 -9 -10 -6 0 -13 5 -16 10 -3 6 1 10 9 10 9 0 16 -4 16 -10z m-60 -20
c0 -5 -7 -10 -15 -10 -8 0 -15 5 -15 10 0 6 7 10 15 10 8 0 15 -4 15 -10z
m-70 -20 c0 -5 -7 -10 -15 -10 -8 0 -15 5 -15 10 0 6 7 10 15 10 8 0 15 -4 15
-10z m-60 -20 c0 -5 -6 -10 -14 -10 -8 0 -18 5 -21 10 -3 6 3 10 14 10 12 0
21 -4 21 -10z m6940 -651 c0 -5 -4 -9 -10 -9 -5 0 -10 7 -10 16 0 8 5 12 10 9
6 -3 10 -10 10 -16z m-25 -48 c3 -5 1 -12 -5 -16 -5 -3 -10 1 -10 9 0 18 6 21
15 7z"/>
        <path d="M11348 14993 c6 -2 18 -2 25 0 6 3 1 5 -13 5 -14 0 -19 -2 -12 -5z"/>
        <path d="M15025 13823 c-11 -3 -51 -20 -90 -37 -157 -72 -256 -108 -379 -135
-131 -29 -176 -52 -146 -72 16 -10 103 -5 205 12 32 6 122 34 200 61 83 31
158 52 184 52 40 1 46 -2 64 -31 15 -27 18 -51 18 -142 -1 -151 -22 -252 -65
-315 -19 -28 -307 -377 -642 -776 -334 -399 -734 -876 -888 -1060 -991 -1183
-1180 -1409 -1362 -1620 -111 -129 -210 -244 -220 -255 -11 -11 -37 -41 -58
-65 -97 -111 -289 -323 -336 -370 -14 -14 -68 -72 -120 -130 -52 -57 -131
-141 -175 -185 -44 -45 -102 -105 -129 -134 -26 -29 -51 -50 -54 -46 -5 5 25
38 138 154 14 15 72 78 130 141 58 63 128 140 156 170 28 30 73 80 100 110 27
30 51 57 54 60 58 58 487 558 915 1070 444 531 656 784 873 1043 387 461 520
620 681 812 92 110 242 288 332 395 481 573 573 686 592 729 17 37 21 66 22
151 0 121 -13 162 -56 180 -31 13 -66 8 -219 -37 -98 -28 -243 -53 -314 -53
-62 0 -117 -17 -148 -44 -63 -56 -138 -166 -138 -201 0 -9 -32 -53 -70 -97
-39 -45 -68 -83 -65 -86 3 -3 13 2 23 11 30 27 36 20 10 -12 -16 -20 -27 -26
-35 -19 -8 7 -22 -2 -45 -28 -46 -52 -61 -74 -49 -74 5 0 11 6 14 13 2 6 7 9
11 5 4 -3 2 -15 -5 -27 -10 -15 -17 -17 -26 -9 -9 7 -20 2 -40 -23 -44 -51
-52 -63 -53 -74 0 -5 4 -3 10 5 14 22 23 5 10 -20 -9 -17 -14 -19 -26 -9 -8 6
-16 10 -17 8 -2 -2 -21 -26 -43 -53 -33 -42 -35 -47 -14 -36 14 8 31 13 37 12
8 -2 10 3 7 13 -5 11 -2 14 10 9 12 -5 15 -2 10 10 -4 11 -2 15 8 11 8 -3 25
6 37 19 19 20 21 29 13 39 -14 17 -6 28 16 20 10 -4 13 -2 8 5 -4 7 -1 12 6
12 24 0 79 65 72 84 -4 11 -2 16 7 14 8 -2 13 3 11 10 -1 8 1 11 6 8 15 -9
105 91 98 109 -3 9 -2 14 2 11 5 -3 41 25 80 62 82 78 102 86 332 148 244 65
304 75 368 58 44 -12 65 -85 40 -141 -7 -15 -150 -192 -318 -393 -656 -786
-858 -1028 -919 -1100 -35 -41 -176 -210 -314 -375 -138 -165 -299 -356 -356
-425 -58 -69 -220 -262 -360 -430 -141 -168 -307 -366 -369 -440 -63 -74 -169
-200 -235 -280 -466 -557 -919 -1068 -1347 -1520 -212 -224 -273 -293 -290
-326 -25 -50 -230 -354 -309 -459 -156 -208 -274 -335 -377 -406 -63 -43 -153
-89 -174 -89 -11 0 -22 -4 -25 -10 -3 -5 -20 -10 -36 -10 -18 0 -28 4 -24 10
3 6 15 10 26 10 10 0 27 4 37 9 9 5 43 21 74 36 198 91 452 389 800 935 19 30
117 143 218 250 395 421 765 838 1163 1313 59 70 153 182 210 250 116 137 403
480 897 1072 183 220 359 429 390 465 31 36 184 218 340 405 157 187 311 372
344 410 32 39 183 218 335 399 152 182 307 366 344 410 199 235 227 274 227
315 0 69 -93 78 -229 24 -89 -35 -138 -70 -202 -145 -30 -35 -56 -65 -59 -68
-3 -3 -25 -30 -50 -60 -24 -30 -48 -56 -52 -58 -5 -2 -8 -10 -8 -18 0 -8 -4
-14 -10 -14 -5 0 -28 -24 -50 -52 -46 -61 -110 -140 -149 -183 -14 -17 -43
-52 -64 -77 -21 -26 -43 -53 -50 -60 -7 -7 -29 -34 -50 -60 -21 -26 -43 -53
-50 -60 -7 -7 -28 -33 -48 -58 -20 -25 -47 -56 -59 -70 -12 -14 -39 -45 -59
-70 -20 -25 -41 -51 -48 -58 -7 -7 -29 -34 -50 -60 -21 -26 -45 -54 -53 -62
-9 -8 -31 -35 -50 -60 -19 -25 -42 -52 -52 -61 -10 -9 -18 -19 -18 -23 0 -3
-8 -14 -17 -25 -41 -43 -83 -92 -83 -96 0 -3 -8 -13 -17 -23 -36 -37 -83 -92
-83 -96 0 -4 -51 -65 -82 -98 -10 -10 -18 -20 -18 -22 0 -3 -12 -18 -27 -34
-34 -35 -73 -82 -73 -87 0 -2 -12 -17 -27 -33 -35 -37 -88 -100 -149 -177 -26
-33 -50 -62 -53 -65 -3 -3 -22 -25 -42 -50 -20 -25 -47 -56 -59 -70 -12 -14
-39 -45 -59 -70 -20 -25 -38 -47 -41 -50 -9 -8 -213 -250 -239 -284 -14 -17
-41 -49 -60 -72 -37 -41 -41 -46 -121 -144 -25 -30 -52 -62 -60 -70 -9 -8 -31
-35 -50 -60 -19 -25 -41 -52 -50 -60 -8 -8 -32 -36 -53 -62 -21 -26 -43 -53
-50 -60 -7 -7 -28 -33 -48 -58 -20 -25 -47 -56 -59 -70 -12 -14 -39 -45 -59
-70 -20 -25 -41 -51 -48 -58 -7 -7 -29 -34 -50 -60 -21 -26 -43 -51 -49 -57
-7 -5 -33 -36 -59 -68 -49 -62 -66 -82 -130 -157 -22 -26 -67 -80 -100 -120
-55 -67 -108 -129 -174 -205 -14 -17 -42 -50 -62 -75 -20 -25 -47 -56 -59 -70
-12 -14 -39 -45 -59 -70 -20 -25 -43 -52 -51 -60 -9 -8 -31 -35 -50 -60 -19
-25 -44 -54 -55 -65 -12 -11 -34 -38 -50 -60 -16 -22 -35 -44 -42 -48 -7 -4
-26 -27 -42 -51 -17 -24 -45 -59 -63 -79 -18 -19 -53 -59 -78 -88 -48 -56
-112 -131 -164 -190 -17 -20 -58 -69 -91 -109 -65 -79 -122 -145 -228 -263
-124 -138 -226 -183 -352 -158 -82 17 -130 17 -157 2 -33 -19 -114 -118 -140
-173 -13 -27 -30 -48 -38 -48 -9 0 -22 -6 -28 -12 -7 -7 -41 -26 -75 -43 -69
-33 -68 -32 -122 -210 -15 -49 -33 -110 -41 -135 -38 -122 7 -160 189 -160 48
0 87 -4 87 -9 0 -12 -170 -19 -268 -10 -52 5 -94 14 -115 27 -28 17 -32 23
-30 59 1 23 13 63 26 90 33 64 84 216 92 276 11 75 -4 90 -111 106 -134 20
-130 22 -189 -94 -61 -122 -149 -217 -217 -236 -50 -13 -145 -8 -268 16 -408
77 -423 79 -675 81 -241 3 -331 -5 -372 -32 -82 -53 85 -94 917 -228 297 -48
305 -50 455 -92 89 -24 124 -28 325 -36 124 -4 251 -10 283 -14 38 -4 57 -2
57 5 0 6 -9 11 -21 11 -12 0 -17 4 -13 11 4 6 20 8 40 5 19 -3 50 -9 69 -12
23 -4 35 -2 35 5 0 6 -5 11 -12 11 -9 0 -9 3 0 12 9 9 18 9 37 0 32 -15 75
-16 75 -2 0 6 -4 10 -10 10 -5 0 -10 5 -10 10 0 6 9 10 19 10 11 0 23 -4 26
-10 3 -5 19 -10 36 -10 16 0 29 5 29 10 0 6 -8 10 -17 10 -13 0 -14 3 -5 12 9
9 18 9 37 0 32 -15 75 -16 75 -2 0 6 -10 10 -22 10 -17 0 -19 3 -10 12 10 10
17 10 32 0 27 -17 44 -15 114 9 72 25 151 83 210 153 64 76 189 265 203 309 3
9 8 17 12 17 4 0 13 16 21 35 8 19 17 35 22 35 4 0 8 7 8 15 0 8 3 15 8 15 4
0 13 12 19 27 10 20 10 30 1 40 -6 7 -7 17 -3 21 4 4 10 1 12 -5 6 -18 23 -16
23 2 0 8 3 15 8 15 12 0 34 54 22 58 -5 2 -10 11 -10 19 0 13 3 13 15 3 13
-11 18 -10 30 6 17 23 18 31 5 39 -5 3 -10 11 -10 17 0 7 4 7 13 -1 11 -8 19
-2 40 29 14 22 21 42 16 45 -5 4 -9 13 -9 22 0 12 3 13 13 4 11 -8 18 -6 31 8
11 12 14 21 7 26 -6 3 -11 14 -11 23 0 12 3 13 12 4 18 -18 53 15 37 35 -7 7
-9 17 -5 20 4 4 11 1 16 -7 6 -8 10 -10 10 -5 0 6 98 109 218 229 119 120 239
244 266 275 27 31 128 137 225 236 274 280 603 638 902 980 185 212 359 418
1264 1500 313 374 605 723 650 775 44 52 148 176 230 274 83 98 294 350 469
560 175 210 328 401 338 425 34 74 60 243 62 394 1 134 0 139 -23 158 -22 18
-54 22 -96 12z m-265 -603 c0 -5 -4 -10 -10 -10 -5 0 -10 -7 -10 -15 0 -15
-11 -30 -80 -109 -20 -23 -53 -63 -75 -91 -22 -27 -44 -54 -50 -60 -6 -5 -29
-34 -50 -62 -22 -29 -42 -53 -46 -53 -3 0 -18 -17 -31 -37 -14 -21 -38 -52
-54 -69 -17 -18 -43 -49 -59 -70 -17 -22 -50 -62 -75 -90 -25 -28 -72 -84
-105 -124 -33 -40 -78 -94 -100 -120 -22 -26 -67 -80 -100 -120 -33 -40 -78
-94 -100 -120 -22 -26 -67 -80 -100 -120 -33 -40 -82 -99 -110 -130 -27 -31
-75 -87 -105 -124 -30 -38 -75 -92 -100 -121 -25 -29 -70 -83 -100 -120 -30
-37 -75 -91 -100 -120 -83 -97 -135 -159 -174 -210 -22 -27 -45 -54 -52 -60
-7 -5 -33 -37 -60 -70 -26 -33 -50 -62 -53 -65 -3 -3 -23 -26 -44 -52 -21 -26
-43 -53 -50 -60 -7 -7 -29 -34 -50 -60 -21 -26 -43 -53 -50 -60 -7 -7 -29 -34
-50 -60 -21 -26 -43 -53 -50 -60 -7 -7 -32 -38 -57 -68 -25 -30 -47 -57 -50
-60 -3 -3 -25 -30 -50 -60 -50 -61 -74 -89 -140 -166 -73 -84 -126 -147 -157
-184 -15 -19 -31 -37 -36 -38 -4 -2 -20 -22 -36 -45 -16 -23 -40 -53 -54 -67
-13 -14 -42 -47 -62 -75 -21 -27 -42 -52 -47 -53 -4 -2 -21 -22 -37 -45 -16
-23 -44 -58 -63 -78 -18 -20 -44 -50 -58 -67 -14 -18 -43 -51 -65 -75 -22 -23
-57 -63 -78 -89 -21 -26 -43 -53 -50 -60 -7 -7 -29 -34 -50 -60 -21 -26 -43
-53 -50 -60 -7 -7 -37 -42 -67 -78 -30 -36 -57 -67 -60 -70 -3 -3 -30 -34 -60
-70 -30 -36 -62 -72 -70 -80 -9 -8 -26 -28 -38 -45 -13 -16 -51 -59 -85 -96
-34 -36 -93 -102 -132 -145 -106 -119 -204 -209 -215 -198 -6 6 -1 19 15 36
14 15 25 31 25 36 0 4 13 21 30 37 16 15 28 33 27 39 -1 6 4 10 11 8 8 -1 11
1 8 6 -3 5 15 28 39 52 24 24 42 47 39 51 -2 4 18 29 46 55 27 26 50 53 50 60
0 7 23 34 50 60 28 26 50 54 50 62 0 8 23 34 50 59 28 25 50 51 50 58 0 7 23
34 50 61 28 27 50 54 50 61 0 7 24 37 54 66 30 28 57 62 61 75 3 12 22 34 41
49 20 14 44 43 54 63 10 20 34 49 53 66 19 16 41 43 50 59 8 17 36 48 61 70
25 22 46 47 46 56 0 9 23 36 50 61 28 25 50 50 50 56 0 6 18 29 39 51 22 22
54 61 70 85 17 25 39 51 49 58 9 7 30 32 46 56 16 24 44 56 62 71 18 16 39 42
48 58 8 16 30 42 49 59 19 16 40 40 47 54 7 14 34 48 59 76 25 29 51 58 56 66
6 7 29 36 53 63 24 28 46 55 50 60 4 6 25 31 47 56 22 25 67 79 100 119 33 40
79 93 103 118 23 25 42 48 42 53 0 4 23 31 50 60 28 29 50 56 50 60 0 4 23 31
50 60 28 29 50 56 50 61 0 4 25 34 55 65 30 32 55 62 55 67 0 4 20 29 44 55
25 25 55 60 67 76 13 17 39 49 58 71 20 23 61 72 91 109 30 37 74 88 98 114
24 25 50 58 58 73 7 14 27 36 44 48 17 12 39 38 49 58 11 21 40 54 65 75 25
21 46 45 46 53 0 9 23 36 50 61 28 25 50 51 50 59 0 7 23 34 50 60 28 26 50
52 50 59 0 7 23 35 50 61 28 26 50 53 50 60 0 7 25 36 55 65 30 29 55 58 55
65 0 7 23 34 50 60 28 26 50 53 50 60 0 7 23 34 50 60 28 26 50 53 50 60 0 7
25 36 55 65 30 29 55 58 55 65 0 7 23 34 50 60 28 26 50 52 50 58 0 7 23 34
50 61 28 27 50 54 50 61 0 19 87 93 117 100 15 3 33 7 38 9 19 6 25 5 25 -5z
m-3730 -4655 c0 -9 -59 -72 -212 -228 -82 -83 -148 -147 -148 -143 0 4 75 86
168 182 92 96 169 179 170 184 4 10 22 14 22 5z m-336 -141 c8 -21 8 -24 -3
-24 -5 0 -11 9 -14 20 -6 24 8 27 17 4z m-53 -33 c-8 -5 -11 -16 -8 -25 5 -12
-12 -37 -55 -81 -34 -36 -66 -65 -72 -65 -6 0 4 14 22 30 17 16 32 35 32 40 0
6 5 8 10 5 6 -3 10 0 10 7 0 8 9 20 20 28 11 8 20 24 20 36 0 23 8 34 24 34 6
0 5 -4 -3 -9z m39 3 c0 -3 -7 -12 -15 -21 -20 -19 -32 -10 -14 11 14 15 29 21
29 10z m-190 -408 c0 -3 -4 -8 -10 -11 -5 -3 -10 -1 -10 4 0 6 5 11 10 11 6 0
10 -2 10 -4z m-170 -12 c0 -4 -17 -41 -38 -83 -47 -94 -157 -241 -259 -347
-13 -13 -23 -28 -23 -34 0 -5 -3 -10 -7 -10 -5 0 -21 -21 -38 -48 -51 -83
-141 -195 -197 -249 -129 -121 -307 -203 -442 -203 -117 0 -147 36 -126 152
14 77 22 99 73 208 43 93 110 172 135 162 11 -4 14 -1 9 12 -4 10 -3 15 3 11
5 -3 89 -1 187 5 179 10 315 31 321 50 2 6 12 10 21 10 21 0 105 87 115 118 4
12 11 22 16 22 5 0 10 6 12 14 10 43 182 216 215 216 13 0 23 -3 23 -6z m130
-55 c0 -5 -4 -9 -10 -9 -5 0 -10 7 -10 16 0 8 5 12 10 9 6 -3 10 -10 10 -16z
m-40 -59 c0 -5 -4 -10 -10 -10 -5 0 -10 5 -10 10 0 6 5 10 10 10 6 0 10 -4 10
-10z m-20 -30 c0 -5 -4 -10 -10 -10 -5 0 -10 5 -10 10 0 6 5 10 10 10 6 0 10
-4 10 -10z m-45 -60 c3 -5 1 -10 -4 -10 -6 0 -11 5 -11 10 0 6 2 10 4 10 3 0
8 -4 11 -10z m-35 -71 c0 -5 -4 -9 -10 -9 -5 0 -10 7 -10 16 0 8 5 12 10 9 6
-3 10 -10 10 -16z m-20 -29 c0 -5 -4 -10 -10 -10 -5 0 -10 5 -10 10 0 6 5 10
10 10 6 0 10 -4 10 -10z m-40 -60 c0 -5 -4 -10 -10 -10 -5 0 -10 5 -10 10 0 6
5 10 10 10 6 0 10 -4 10 -10z m-20 -35 c0 -8 -4 -15 -10 -15 -5 0 -10 -7 -10
-15 0 -8 -4 -15 -10 -15 -5 0 -10 -7 -10 -15 0 -8 -4 -15 -10 -15 -5 0 -10 -5
-10 -10 0 -14 -148 -233 -198 -295 -59 -70 -168 -163 -226 -191 -51 -25 -92
-32 -81 -14 3 6 13 10 21 10 24 0 129 75 203 145 64 61 281 349 281 373 0 7 5
12 10 12 6 0 10 7 10 15 0 8 5 15 10 15 6 0 10 7 10 15 0 8 5 15 10 15 6 0 10
-7 10 -15z m-790 -605 c0 -5 -19 -10 -42 -10 -32 0 -39 3 -28 10 20 13 70 13
70 0z"/>
        <path d="M13742 12699 c-11 -17 -16 -18 -28 -8 -8 6 -16 10 -17 8 -2 -2 -20
-25 -42 -52 -21 -26 -30 -45 -21 -41 9 3 16 10 16 16 0 5 9 7 20 3 15 -5 18
-3 14 9 -5 12 -2 15 10 10 12 -5 15 -2 9 12 -4 11 -3 15 5 10 11 -7 62 31 62
46 0 15 -15 8 -28 -13z"/>
        <path d="M13642 12580 c-7 -11 -9 -20 -4 -20 10 0 32 22 32 32 0 15 -15 8 -28
-12z"/>
        <path d="M13575 12553 c-38 -51 -40 -56 -13 -42 12 7 29 12 35 11 8 -2 10 3 7
13 -5 11 -2 14 11 9 15 -6 16 -4 6 14 -15 28 -22 27 -46 -5z"/>
        <path d="M13552 12468 c-7 -7 -12 -16 -12 -21 0 -5 7 -1 16 8 9 9 14 18 12 20
-2 3 -10 -1 -16 -7z"/>
        <path d="M13484 12438 c-11 -13 -26 -32 -34 -42 -15 -19 -15 -19 18 -1 17 11
32 23 32 28 0 5 7 7 15 3 13 -4 14 -2 5 14 -13 25 -12 25 -36 -2z"/>
        <path d="M13452 12348 c-7 -7 -12 -16 -12 -21 0 -5 7 -1 16 8 9 9 14 18 12 20
-2 3 -10 -1 -16 -7z"/>
        <path d="M13384 12318 c-50 -58 -56 -75 -13 -37 13 11 31 25 39 29 11 6 12 12
4 20 -7 7 -16 4 -30 -12z"/>
        <path d="M13355 12230 c-3 -5 -1 -10 4 -10 6 0 11 5 11 10 0 6 -2 10 -4 10 -3
0 -8 -4 -11 -10z"/>
        <path d="M13261 12169 l-23 -31 30 22 c17 13 29 27 26 32 -7 12 -8 11 -33 -23z"/>
        <path d="M13169 12058 c-12 -22 -11 -22 7 -8 10 8 20 15 22 16 2 1 -1 5 -7 8
-5 4 -15 -4 -22 -16z"/>
        <path d="M13070 11938 c-12 -22 -12 -22 6 -6 10 10 15 20 12 24 -4 3 -12 -5
-18 -18z"/>
        <path d="M12971 11817 c-13 -21 -12 -21 5 -5 10 10 16 20 13 22 -3 3 -11 -5
-18 -17z"/>
        <path d="M12871 11697 c-13 -21 -12 -21 5 -5 10 10 16 20 13 22 -3 3 -11 -5
-18 -17z"/>
        <path d="M12771 11577 c-13 -21 -12 -21 5 -5 10 10 16 20 13 22 -3 3 -11 -5
-18 -17z"/>
        <path d="M11636 10224 c-5 -14 -4 -15 9 -4 17 14 19 20 6 20 -5 0 -12 -7 -15
-16z"/>
        <path d="M11540 10115 c-7 -9 -11 -18 -8 -20 3 -3 11 1 18 10 7 9 11 18 8 20
-3 3 -11 -1 -18 -10z"/>
        <path d="M11438 9993 c-29 -34 -30 -48 -2 -21 15 15 26 30 23 33 -3 3 -13 -3
-21 -12z"/>
        <path d="M11320 9855 c-7 -9 -11 -18 -8 -20 3 -3 11 1 18 10 7 9 11 18 8 20
-3 3 -11 -1 -18 -10z"/>
        <path d="M11218 9733 c-27 -33 -32 -48 -6 -25 13 12 28 19 32 15 4 -4 4 0 0
10 -8 21 -8 21 -26 0z"/>
        <path d="M11179 9633 c-13 -16 -12 -17 4 -4 9 7 17 15 17 17 0 8 -8 3 -21 -13z"/>
        <path d="M11110 9605 c-13 -14 -21 -27 -18 -30 3 -3 11 1 18 10 7 8 19 15 26
15 15 0 19 16 5 24 -4 3 -19 -6 -31 -19z"/>
        <path d="M11076 9514 c-5 -14 -4 -15 9 -4 17 14 19 20 6 20 -5 0 -12 -7 -15
-16z"/>
        <path d="M11005 9483 c-37 -49 -39 -56 -16 -41 12 7 21 16 21 21 0 4 5 5 10 2
6 -3 10 -1 10 4 0 6 7 11 16 11 14 0 14 3 4 15 -17 20 -22 19 -45 -12z"/>
        <path d="M10977 9396 c-4 -10 -1 -13 9 -9 15 6 19 23 5 23 -5 0 -11 -7 -14
-14z"/>
        <path d="M10900 9358 c-14 -17 -31 -40 -39 -51 -12 -17 -12 -18 8 -5 11 7 21
16 21 20 0 4 7 4 17 1 11 -4 14 -3 9 5 -4 7 -1 12 9 12 9 0 13 5 10 10 -3 6 1
10 9 10 10 0 13 6 10 15 -9 23 -26 17 -54 -17z"/>
        <path d="M10875 9277 c-16 -25 -20 -26 -28 -12 -7 14 -14 10 -45 -26 -52 -60
-60 -75 -28 -54 14 9 31 13 37 9 9 -5 10 -2 6 10 -6 14 -3 17 9 12 12 -5 15
-2 10 10 -4 10 -1 14 6 12 17 -6 61 37 56 53 -3 9 -11 4 -23 -14z"/>
        <path d="M10767 9150 c-20 -23 -31 -29 -40 -22 -9 8 -23 -3 -55 -40 -23 -28
-40 -53 -37 -56 3 -3 13 4 23 16 15 17 21 19 32 9 10 -10 12 -8 6 7 -5 14 -3
17 10 12 12 -5 15 -2 10 10 -4 10 -1 14 6 12 16 -6 81 57 76 72 -2 8 -15 0
-31 -20z"/>
        <path d="M10652 9018 c-12 -12 -22 -17 -22 -10 0 7 -4 12 -8 12 -14 0 -95
-100 -88 -108 4 -3 11 0 16 8 8 13 10 13 10 -1 0 -9 -7 -22 -15 -29 -10 -9
-15 -9 -15 -1 0 25 -21 6 -111 -100 -52 -62 -108 -128 -125 -148 -17 -20 -88
-103 -158 -186 -71 -82 -151 -177 -179 -209 -29 -33 -52 -68 -52 -77 0 -9 -10
-28 -23 -42 -14 -15 -19 -27 -13 -31 11 -7 228 202 223 216 -1 5 20 31 48 58
27 27 50 54 50 61 0 6 23 34 50 62 28 28 50 55 50 62 0 6 23 33 50 60 28 27
50 54 50 60 0 6 22 33 49 59 43 42 48 52 39 69 -7 15 -7 18 2 12 7 -4 31 11
60 40 42 41 47 51 38 68 -9 17 -8 19 7 13 13 -5 16 -2 11 9 -3 9 -2 13 4 10
12 -7 83 60 79 74 -3 7 -14 2 -27 -11z m-198 -233 c-7 -16 -24 -21 -24 -6 0 8
7 13 27 20 1 1 0 -6 -3 -14z"/>
        <path d="M7807 7679 c-51 -10 -72 -22 -146 -77 -77 -58 -172 -99 -423 -183
-345 -115 -389 -140 -358 -197 25 -45 144 -91 315 -122 28 -5 102 -19 165 -30
184 -34 318 -56 428 -70 319 -43 380 -52 527 -80 89 -16 191 -40 270 -62 54
-15 505 -23 505 -9 0 7 -66 11 -196 11 -108 0 -213 4 -233 10 -214 57 -390 89
-818 150 -38 5 -93 13 -123 19 -515 88 -654 122 -690 168 -27 34 -26 40 13 63
51 32 147 57 367 94 113 19 250 46 305 61 116 29 139 30 271 9 105 -16 132
-21 314 -54 162 -29 189 -25 256 41 31 31 54 62 54 74 0 26 -33 63 -63 70 -17
4 -337 61 -672 120 -11 2 -42 -1 -68 -6z"/>
        <path d="M8254 15709 c-4 -7 146 -31 299 -49 48 -5 124 -14 170 -20 124 -15
330 -38 547 -60 180 -18 233 -24 470 -51 47 -5 130 -14 185 -19 55 -6 177 -20
270 -31 94 -11 211 -24 260 -29 267 -28 506 -67 783 -126 291 -62 364 -49 515
95 31 31 57 61 57 67 0 7 3 14 8 16 9 4 46 56 72 103 21 37 25 71 12 92 -6 10
-405 13 -1826 15 -1000 2 -1820 0 -1822 -3z"/>
        <path d="M14214 15710 c-42 -6 -48 -10 -185 -126 -111 -93 -187 -145 -344
-234 -235 -132 -253 -147 -241 -194 6 -23 62 -60 119 -78 105 -34 289 -52 482
-49 372 7 4367 3 4468 -4 76 -5 107 -4 107 4 0 6 -15 11 -32 11 -18 0 -40 5
-48 11 -15 10 47 8 153 -7 31 -4 47 -2 47 5 0 6 -11 11 -24 11 -14 0 -28 5
-32 11 -7 11 27 9 104 -7 37 -7 45 9 10 21 l-23 8 24 4 c13 3 28 0 34 -6 14
-14 54 -14 62 -1 3 6 -3 10 -14 10 -11 0 -23 5 -26 10 -9 14 31 12 55 -2 16
-10 24 -10 40 0 11 6 29 12 40 12 11 0 20 5 20 10 0 6 11 10 24 10 14 0 28 5
31 10 3 6 15 10 26 10 10 0 19 5 19 10 0 6 6 10 13 10 24 0 247 117 383 200
38 24 90 55 116 71 139 83 368 245 368 259 0 12 -72 3 -115 -15 -16 -7 -97
-63 -180 -125 -240 -180 -430 -303 -570 -369 -27 -13 -58 -27 -67 -32 -10 -5
-25 -9 -33 -9 -8 0 -15 -4 -15 -10 0 -5 -9 -10 -20 -10 -11 0 -20 5 -20 10 0
6 6 10 14 10 21 0 180 86 266 143 99 67 164 119 288 234 84 78 102 100 102
123 0 19 -7 33 -19 40 -14 7 -830 10 -2565 10 -2489 0 -2547 0 -2596 -19 -49
-19 -87 -46 -175 -127 -47 -42 -178 -130 -250 -166 -27 -14 -116 -57 -196 -96
-179 -87 -228 -133 -181 -174 20 -19 114 -48 153 -48 15 0 31 -4 34 -10 10
-16 -94 -11 -160 8 -134 38 -160 83 -82 145 37 30 198 127 211 127 10 0 198
112 249 148 144 103 227 189 201 210 -5 5 -27 6 -50 2z m4436 -491 c60 -10 76
-40 28 -52 -152 -38 -64 -36 -2262 -37 -1970 0 -2110 1 -2137 17 -32 19 -38
33 -14 33 9 0 26 6 38 14 12 8 56 19 97 24 72 9 4195 10 4250 1z m310 -89 c0
-5 -9 -10 -19 -10 -11 0 -23 5 -26 10 -4 6 5 10 19 10 14 0 26 -4 26 -10z
m-4905 -80 c-29 -12 -195 -12 -195 0 0 6 42 10 108 9 69 0 100 -3 87 -9z"/>
        <path d="M5700 15640 c36 -12 60 -12 60 0 0 6 -19 10 -42 9 -37 -1 -39 -2 -18
-9z"/>
        <path d="M14280 15010 c87 -10 4057 -10 4095 0 17 4 -913 7 -2065 7 -1152 0
-2066 -3 -2030 -7z"/>
        <path d="M11000 14510 c-74 -22 -189 -51 -255 -65 -66 -14 -131 -34 -145 -43
-25 -17 -24 -17 55 -20 82 -3 188 14 307 49 80 23 152 27 174 8 33 -27 0 -203
-59 -318 -9 -19 -17 -40 -17 -48 0 -24 19 -13 33 20 114 257 151 397 116 433
-28 28 -72 24 -209 -16z"/>
        <path d="M10885 14349 c-44 -10 -125 -21 -180 -24 -196 -12 -224 -20 -299 -81
-36 -31 -66 -60 -66 -64 0 -5 10 -14 22 -21 21 -11 74 -10 438 7 131 6 136 6
155 -16 31 -34 27 -123 -7 -180 -21 -37 -245 -261 -348 -350 -14 -12 -77 -70
-140 -129 -63 -59 -135 -125 -160 -147 -25 -21 -52 -46 -60 -54 -84 -86 -769
-678 -1285 -1110 -88 -74 -203 -170 -255 -214 -168 -142 -271 -228 -465 -391
-104 -88 -262 -220 -350 -295 -88 -74 -267 -225 -399 -335 -345 -289 -808
-678 -1351 -1135 -513 -432 -649 -546 -900 -756 -126 -106 -338 -283 -470
-394 -264 -222 -335 -282 -410 -344 -27 -22 -65 -55 -85 -72 -19 -17 -118
-100 -220 -185 -102 -85 -196 -164 -210 -176 -14 -12 -113 -95 -220 -185 -107
-89 -332 -278 -498 -418 -295 -248 -372 -306 -396 -297 -6 3 -2 8 9 13 10 4
26 13 35 20 21 17 396 331 565 474 500 420 695 585 876 737 112 94 278 234
368 310 91 76 251 210 356 299 106 88 277 233 381 320 188 159 907 764 1394
1172 140 118 295 249 345 291 49 42 187 157 305 256 207 174 523 440 910 765
102 86 313 263 470 395 479 402 602 505 689 579 132 111 515 439 521 445 3 4
39 35 80 71 41 36 77 67 80 70 3 3 43 39 90 80 47 41 90 79 96 85 6 5 48 44
94 85 46 41 93 84 104 95 12 11 44 40 71 64 161 144 340 321 356 353 20 39 25
94 10 116 -13 21 -79 40 -125 35 -46 -5 -366 -46 -496 -64 -46 -6 -102 -20
-125 -29 -35 -16 -206 -146 -306 -234 -19 -17 -73 -62 -119 -101 -45 -38 -109
-92 -140 -120 -32 -27 -91 -77 -130 -110 -40 -33 -99 -82 -130 -110 -32 -27
-91 -77 -130 -110 -40 -33 -96 -80 -125 -105 -28 -25 -85 -72 -125 -105 -41
-33 -97 -80 -124 -105 -48 -43 -89 -77 -190 -160 -50 -40 -506 -425 -611 -515
-89 -77 -424 -359 -481 -405 -55 -45 -267 -224 -320 -270 -95 -83 -159 -136
-178 -150 -12 -8 -39 -31 -61 -51 -22 -21 -53 -48 -70 -60 -16 -13 -48 -39
-71 -58 -93 -82 -159 -137 -178 -150 -12 -8 -23 -18 -26 -21 -7 -8 -184 -158
-224 -189 -17 -14 -52 -43 -77 -65 -25 -23 -56 -50 -70 -61 -13 -10 -91 -76
-173 -145 -82 -69 -172 -144 -200 -167 -28 -24 -76 -64 -107 -90 -52 -44 -128
-107 -249 -208 -26 -22 -80 -67 -120 -100 -40 -33 -94 -78 -120 -100 -26 -22
-141 -119 -255 -215 -114 -96 -224 -188 -245 -205 -20 -16 -257 -214 -525
-440 -268 -225 -507 -426 -531 -445 -93 -76 -141 -116 -180 -150 -22 -19 -74
-62 -114 -95 -40 -33 -97 -80 -126 -105 -29 -25 -82 -70 -119 -100 -37 -30
-91 -75 -120 -100 -52 -44 -139 -117 -241 -202 -28 -24 -84 -70 -124 -103 -40
-33 -94 -78 -120 -100 -116 -98 -210 -176 -420 -351 -235 -196 -318 -265 -386
-324 -22 -19 -52 -45 -67 -57 -37 -31 -36 -68 2 -87 16 -9 31 -12 34 -9 4 3
13 0 21 -7 19 -15 281 -19 374 -6 42 6 62 5 62 -2 0 -5 -19 -12 -42 -15 -24
-3 -79 -12 -123 -20 -83 -16 -236 -32 -415 -42 -58 -4 -121 -11 -140 -16 -34
-8 -181 -117 -188 -139 -2 -5 11 -10 30 -10 45 0 261 40 393 72 75 18 105 21
105 9 0 -6 -15 -11 -34 -11 -19 0 -38 -4 -41 -10 -3 -5 -16 -10 -27 -10 -12 0
-35 -4 -52 -9 -59 -18 -129 -35 -321 -76 -65 -14 -137 -35 -160 -46 l-40 -19
65 5 c55 5 251 49 380 87 19 5 47 12 63 15 15 3 30 9 33 14 3 5 18 9 34 9 16
0 32 4 35 10 3 6 17 10 30 10 13 0 27 5 30 10 3 6 19 10 36 10 16 0 29 5 29
10 0 6 -11 10 -25 10 -14 0 -25 5 -25 10 0 13 47 13 55 0 8 -13 55 -13 55 0 0
6 -7 10 -15 10 -8 0 -15 5 -15 10 0 13 37 13 45 0 8 -13 55 -13 55 0 0 6 -7
10 -15 10 -8 0 -15 5 -15 10 0 13 37 13 45 0 8 -13 45 -13 45 -1 0 5 -6 11
-12 14 -7 2 -9 8 -5 13 4 4 17 3 27 -4 31 -19 52 -15 45 8 -4 14 -2 20 9 20 8
0 18 -4 21 -10 10 -17 48 -12 42 5 -8 19 11 31 26 16 17 -17 50 -14 44 4 -8
19 11 31 26 16 17 -17 34 -13 40 10 5 17 9 19 26 10 27 -15 41 -14 41 3 0 21
20 30 33 17 15 -15 37 -14 37 3 0 17 27 29 35 16 11 -18 43 -10 48 11 5 17 9
19 26 10 27 -15 41 -14 41 3 0 21 20 30 33 17 17 -17 50 -14 44 4 -8 19 11 31
26 16 14 -14 47 -15 47 -1 0 6 -5 10 -12 10 -9 0 -9 3 -1 11 8 8 16 7 31 -2
16 -10 27 -10 44 -2 96 45 128 65 202 127 45 39 204 173 352 297 148 124 314
264 369 310 121 103 342 288 605 509 167 141 1496 1259 1704 1434 39 33 138
116 220 185 83 70 225 189 316 266 92 77 250 209 351 294 101 85 225 189 274
231 50 42 191 161 315 265 124 103 261 219 305 256 44 37 199 168 345 290 854
718 1159 979 1370 1173 25 22 97 88 160 146 63 58 131 121 150 140 19 19 82
78 139 130 140 127 354 340 348 346 -3 3 -49 -38 -102 -90 -53 -53 -131 -126
-173 -164 -42 -37 -97 -87 -122 -112 -25 -25 -88 -83 -140 -130 -52 -47 -117
-106 -145 -131 -27 -25 -72 -66 -100 -90 -27 -24 -52 -46 -55 -49 -11 -11
-242 -212 -380 -331 -80 -68 -316 -268 -525 -444 -617 -519 -706 -593 -790
-664 -44 -38 -181 -153 -305 -256 -124 -104 -279 -234 -345 -290 -66 -56 -179
-151 -250 -211 -72 -60 -465 -390 -875 -734 -409 -344 -845 -710 -969 -814
-397 -333 -648 -544 -966 -811 -594 -499 -682 -573 -964 -808 -156 -130 -289
-237 -297 -237 -8 0 -14 -4 -14 -10 0 -5 -9 -10 -20 -10 -11 0 -20 5 -20 10 0
6 7 10 15 10 8 0 23 6 32 14 31 24 154 127 251 208 50 43 136 115 190 160 53
45 138 116 187 158 50 42 248 208 440 370 193 162 465 391 605 509 371 313
490 413 630 530 69 58 166 139 215 181 222 187 353 298 559 470 122 102 307
258 411 346 105 88 532 447 950 799 418 351 798 670 844 709 46 39 186 157
311 261 124 105 251 211 281 236 30 25 144 121 254 214 396 334 944 813 1035
905 8 8 62 58 120 110 57 52 133 123 168 158 36 34 70 62 76 62 6 0 4 -4 -4
-10 -8 -5 -11 -12 -7 -16 4 -4 25 10 47 31 22 21 35 42 30 45 -5 3 13 28 40
55 27 27 53 45 57 41 4 -4 1 -11 -7 -16 -8 -5 -12 -12 -8 -15 3 -3 101 89 217
206 171 172 210 216 205 232 -5 16 -3 19 10 14 17 -7 22 8 6 18 -6 4 -7 11 -4
17 4 6 9 5 15 -3 4 -7 11 -10 16 -6 4 4 2 16 -5 27 -6 10 -8 22 -3 24 5 3 12
-2 15 -11 5 -13 9 -14 19 -4 9 10 8 15 -6 26 -17 12 -16 16 7 86 34 102 38
186 10 213 -20 21 -85 19 -189 -5z m-9 -320 c43 -35 5 -99 -132 -224 -137
-125 -218 -199 -224 -205 -10 -11 -368 -328 -450 -399 -343 -297 -483 -416
-785 -669 -115 -97 -221 -186 -235 -199 -14 -12 -115 -97 -226 -190 -218 -183
-563 -472 -908 -763 -121 -102 -322 -270 -446 -375 -314 -263 -733 -616 -995
-836 -121 -102 -305 -256 -410 -344 -305 -256 -675 -567 -885 -743 -220 -186
-658 -553 -920 -773 -216 -181 -551 -462 -910 -764 -647 -544 -645 -542 -725
-570 -19 -7 -19 -8 5 -18 22 -9 23 -11 6 -14 -10 -3 -23 0 -29 6 -13 13 -54
15 -61 2 -3 -5 4 -12 17 -16 20 -6 20 -8 3 -12 -10 -3 -23 0 -29 6 -13 13 -64
15 -71 2 -3 -5 4 -12 17 -16 15 -4 18 -8 9 -12 -8 -3 -25 0 -38 8 -20 10 -39
10 -103 0 -75 -12 -180 -8 -182 7 -7 57 -9 54 148 185 32 27 82 69 112 95 29
26 66 56 81 67 15 11 50 40 79 65 29 25 78 68 110 95 32 28 91 77 131 110 41
33 99 84 130 113 31 28 61 52 66 52 5 0 27 20 51 45 23 25 47 45 53 45 6 0 33
22 59 50 26 27 52 50 58 50 5 0 32 22 59 50 27 27 54 50 60 50 6 0 36 24 66
53 51 48 112 101 258 222 30 25 82 69 116 98 33 28 94 79 134 112 40 33 101
84 134 112 34 29 87 74 119 100 32 27 78 67 103 90 25 23 57 49 71 58 26 17
111 90 193 165 25 23 54 46 65 52 11 6 39 31 63 55 23 23 47 43 53 43 5 0 27
18 48 40 20 22 54 51 75 65 21 14 49 39 64 56 14 17 43 42 64 55 21 13 50 38
66 55 15 17 38 37 52 44 14 7 46 33 72 57 26 24 79 70 118 103 40 33 100 84
134 112 33 29 86 73 116 98 30 25 83 69 116 98 34 28 94 79 133 112 39 33 100
84 134 112 34 29 87 73 117 98 30 25 83 69 116 98 34 28 94 79 133 112 39 33
98 83 131 110 33 28 92 77 131 110 39 33 99 84 133 112 33 29 86 73 116 98 30
25 83 69 117 98 34 28 95 79 134 112 39 33 99 84 133 112 33 29 86 73 116 98
30 25 80 67 110 93 31 26 89 74 130 107 40 33 101 84 134 112 34 29 87 74 119
100 32 27 81 69 110 94 28 25 65 55 81 67 15 12 51 42 80 66 28 25 76 65 106
91 30 25 83 69 117 98 34 28 95 79 134 112 39 33 99 84 133 112 33 29 86 73
116 98 30 25 82 69 116 98 33 28 88 75 122 102 34 28 62 53 62 58 0 4 6 7 13
7 7 0 29 16 48 36 18 19 54 49 79 66 25 17 51 39 58 49 7 10 37 34 66 54 30
20 57 42 60 50 3 8 23 25 45 39 22 14 61 46 87 71 26 25 59 52 74 60 15 8 40
29 55 46 14 18 46 45 71 62 24 16 52 39 62 50 10 12 33 33 52 47 19 13 75 58
123 100 48 41 102 85 119 97 17 13 52 42 79 65 26 24 79 69 116 100 37 31 94
80 126 107 137 117 240 169 407 206 66 14 134 12 156 -6z m104 -89 c0 -5 -5
-10 -11 -10 -5 0 -7 5 -4 10 3 6 8 10 11 10 2 0 4 -4 4 -10z m-276 -282 c-89
-94 -106 -110 -111 -105 -6 7 140 157 146 151 3 -3 -13 -23 -35 -46z m-8004
-6688 c0 -5 -7 -10 -15 -10 -8 0 -15 5 -15 10 0 6 7 10 15 10 8 0 15 -4 15
-10z m-280 -80 c0 -5 -11 -10 -25 -10 -14 0 -25 5 -25 10 0 6 11 10 25 10 14
0 25 -4 25 -10z m-85 -20 c4 -6 -7 -10 -25 -10 -18 0 -29 4 -25 10 3 6 15 10
25 10 10 0 22 -4 25 -10z"/>
        <path d="M11681 6989 c-97 -29 -192 -133 -177 -195 6 -23 54 -47 129 -63 169
-38 1736 -86 1767 -55 19 19 -96 53 -302 89 -49 8 -126 22 -173 30 -47 8 -123
22 -170 30 -47 8 -124 22 -172 30 -49 9 -124 22 -168 30 -44 8 -119 21 -167
30 -49 8 -127 22 -175 31 -325 57 -336 58 -392 43z"/>
        <path d="M7740 5645 c-27 -29 -23 -35 42 -59 62 -23 88 -56 88 -112 0 -23 -4
-45 -9 -48 -5 -3 -7 -15 -4 -26 3 -12 0 -20 -7 -20 -8 0 -10 10 -6 34 4 19 1
45 -5 60 -25 55 -153 86 -197 49 -16 -15 -171 -199 -200 -238 -4 -6 -23 -28
-42 -51 -19 -22 -55 -64 -80 -94 -42 -50 -120 -142 -228 -268 -25 -29 -54 -65
-66 -80 -11 -15 -23 -29 -26 -32 -3 -3 -98 -115 -210 -250 -112 -135 -207
-247 -210 -250 -3 -3 -25 -30 -50 -60 -25 -30 -47 -57 -50 -60 -3 -3 -41 -48
-85 -100 -44 -52 -92 -108 -107 -125 -89 -97 78 39 260 212 59 56 108 100 110
98 4 -4 -150 -158 -215 -215 -94 -82 -423 -404 -418 -409 3 -3 34 22 68 55 34
33 91 85 127 114 36 30 137 124 225 210 88 85 192 184 230 219 130 118 662
651 656 658 -3 3 -1 4 4 0 14 -8 48 19 40 32 -3 7 0 8 9 5 19 -7 22 12 4 20
-7 3 -3 3 10 0 23 -6 31 10 10 20 -7 3 -3 3 10 0 23 -6 31 10 10 20 -7 3 -3 3
10 0 22 -5 32 11 11 18 -6 2 49 63 122 136 100 101 136 131 150 127 21 -7 26
10 7 19 -7 3 -3 3 10 0 23 -6 31 10 10 20 -7 3 -3 3 10 0 23 -6 31 10 10 20
-7 3 -3 3 10 0 23 -6 31 10 10 20 -7 3 -3 3 10 0 12 -3 22 -1 22 5 0 6 -5 11
-10 11 -6 0 -5 8 2 19 9 15 15 17 25 9 8 -6 14 -9 16 -7 66 116 84 211 50 269
-32 56 -122 69 -163 25z m-774 -1139 c-64 -64 -116 -112 -116 -108 0 12 222
233 228 228 2 -3 -48 -57 -112 -120z"/>
        <path d="M7820 5340 c0 -5 5 -10 10 -10 6 0 10 5 10 10 0 6 -4 10 -10 10 -5 0
-10 -4 -10 -10z"/>
        <path d="M7582 5103 c-68 -68 -121 -127 -119 -130 5 -5 257 242 257 252 0 15
-26 -8 -138 -122z"/>
    </g>
</svg>
